<svg width="80" height="81" viewBox="0 0 80 81" fill="none" xmlns="http://www.w3.org/2000/svg">
<g clip-path="url(#clip0_135:342)">
<path d="M50.0709 56.0372H58.7053L44.9219 20.2653H35.3753L21.5919 56.0372H30.2269L32.4794 49.9778H45.5028L43.1453 43.2728H34.5703L40.1484 27.8809L50.0709 56.0372ZM78.5434 29.5525C78.4707 29.2894 78.3468 29.0433 78.1788 28.8282C78.0108 28.6131 77.8021 28.4333 77.5645 28.299C77.3269 28.1646 77.0651 28.0785 76.7942 28.0455C76.5233 28.0125 76.2485 28.0332 75.9856 28.1066C75.4548 28.2539 75.0042 28.6061 74.7329 29.0857C74.4617 29.5652 74.3921 30.1329 74.5394 30.6637C75.406 33.7854 75.8452 37.0103 75.845 40.25C75.845 60.015 59.765 76.0944 40 76.0944C20.235 76.0944 4.15531 60.015 4.15531 40.25C4.15531 20.4847 20.235 4.405 40 4.405C48.3728 4.405 56.4744 7.37937 62.8684 12.6725C62.6125 13.2834 62.481 13.9392 62.4816 14.6016C62.4816 17.3625 64.7197 19.6006 67.4806 19.6006C70.2416 19.6006 72.4797 17.3625 72.4797 14.6016C72.4797 11.8406 70.2416 9.6025 67.4806 9.6025C66.9491 9.6025 66.4375 9.68719 65.9569 9.84094C58.7569 3.705 49.5353 0.25 40 0.25C17.9441 0.25 0 18.1937 0 40.25C0 62.3059 17.9441 80.2497 40 80.2497C62.0559 80.2497 80 62.3059 80 40.25C80.0003 36.6347 79.5103 33.0361 78.5434 29.5525Z" fill="#112B49"/>
</g>
<defs>
<clipPath id="clip0_135:342">
<rect width="80" height="80" fill="white" transform="translate(0 0.25)"/>
</clipPath>
</defs>
</svg>
