<svg width="81" height="81" viewBox="0 0 81 81" fill="none" xmlns="http://www.w3.org/2000/svg">
<g clip-path="url(#clip0_135:432)">
<path d="M0.831055 69.9347C0.831055 75.6322 5.44949 80.25 11.1464 80.25H70.5154C76.2132 80.25 80.8311 75.6316 80.8311 69.9347V10.5656C80.8311 4.86781 76.2126 0.25 70.5157 0.25H11.1467C5.44887 0.25 0.831055 4.86844 0.831055 10.5653V69.9344V69.9347Z" fill="#563D7C"/>
<path d="M34.0054 35.6369V24.3078H43.9776C44.9276 24.3078 45.8432 24.3869 46.7251 24.5453C47.607 24.7034 48.3873 24.9859 49.0657 25.3931C49.7439 25.8003 50.2867 26.3656 50.6939 27.0891C51.1007 27.8128 51.3045 28.74 51.3045 29.8703C51.3045 31.9056 50.6939 33.3756 49.4726 34.28C48.2517 35.1847 46.6914 35.6369 44.7917 35.6369H34.0054ZM23.3545 16.0312V64.4688H46.827C48.9979 64.4688 51.1123 64.1975 53.1701 63.6547C55.2279 63.1119 57.0595 62.2753 58.6651 61.1447C60.2704 60.0141 61.5482 58.5553 62.4979 56.7691C63.4479 54.9825 63.9226 52.8681 63.9226 50.4259C63.9226 47.3956 63.1876 44.8066 61.7179 42.6584C60.2479 40.51 58.0204 39.0062 55.0354 38.1469C57.2064 37.1069 58.8461 35.7725 59.9542 34.1444C61.062 32.5162 61.6161 30.4813 61.6161 28.0388C61.6161 25.7775 61.2429 23.8781 60.4967 22.3403C59.7504 20.8028 58.6989 19.5703 57.342 18.6431C55.9854 17.7159 54.3573 17.0487 52.4576 16.6419C50.5582 16.2347 48.4551 16.0312 46.1486 16.0312H23.3545ZM34.0054 56.1922V42.8956H45.6057C47.9123 42.8956 49.7667 43.4269 51.1689 44.49C52.5707 45.5528 53.272 47.3278 53.272 49.8153C53.272 51.0819 53.057 52.1219 52.6273 52.9359C52.1976 53.75 51.6211 54.3947 50.8973 54.8694C50.1739 55.3444 49.337 55.6834 48.3873 55.8872C47.4373 56.0903 46.4426 56.1922 45.4023 56.1922H34.0054Z" fill="white"/>
</g>
<defs>
<clipPath id="clip0_135:432">
<rect width="80" height="80" fill="white" transform="translate(0.831055 0.25)"/>
</clipPath>
</defs>
</svg>
