<svg width="80" height="80" viewBox="0 0 80 80" fill="none" xmlns="http://www.w3.org/2000/svg">
<path d="M14.7556 68.0025L9.14062 5H70.8606L65.2381 67.9925L39.9631 75L14.7556 68.0025Z" fill="#1572B6"/>
<path d="M40 69.6448L60.425 63.9823L65.23 10.1523H40V69.6448Z" fill="#33A9DC"/>
<path d="M40 32.9779H50.225L50.93 25.0654H40V17.3379H59.375L59.19 19.4104L57.2925 40.7054H40V32.9779Z" fill="white"/>
<path d="M40.0471 53.0459L40.0121 53.0559L31.4071 50.7309L30.8571 44.5684H23.0996L24.1821 56.7009L40.0096 61.0959L40.0471 61.0859V53.0459Z" fill="#EBEBEB"/>
<path d="M49.567 40.377L48.637 50.7245L40.0195 53.0495V61.0895L55.8595 56.6995L55.977 55.3945L57.3195 40.377H49.567Z" fill="white"/>
<path d="M40.0274 17.3379V25.0654H21.3624L21.2074 23.3279L20.8549 19.4104L20.6699 17.3379H40.0274Z" fill="#EBEBEB"/>
<path d="M40 32.9785V40.706H31.5025L31.3475 38.9685L30.9975 35.051L30.8125 32.9785H40Z" fill="#EBEBEB"/>
</svg>
