<svg width="111" height="80" viewBox="0 0 111 80" fill="none" xmlns="http://www.w3.org/2000/svg">
<g clip-path="url(#clip0_135:443)">
<path d="M108.418 30.4852C105.925 28.7555 100.212 28.1068 95.7456 28.9717C95.2267 24.6474 92.8375 20.864 88.6827 17.5126L86.2939 15.7829L84.6317 18.2694C82.5547 21.5126 81.516 26.0532 81.8273 30.3775C81.9311 31.8906 82.4505 34.5933 84.0085 36.9717C82.5547 37.8365 79.5424 38.9176 75.5956 38.9176H0.499342L0.291774 39.7825C-0.435577 44.1064 -0.435577 57.6195 8.08161 67.9974C14.5214 75.8889 24.0773 79.8889 36.6451 79.8889C63.858 79.8889 84.0085 66.8078 93.4606 43.1334C97.1999 43.2415 105.198 43.1334 109.249 35.0253C109.353 34.8091 109.56 34.3767 110.287 32.7555L110.703 31.8906L108.418 30.4852ZM60.5344 0H49.1095V10.8104H60.5344V0ZM60.5344 12.9725H49.1095V23.7829H60.5344V12.9721V12.9725ZM47.0317 12.9725H35.6068V23.7829H47.0317V12.9721V12.9725ZM33.529 12.9725H22.1037V23.7829H33.529V12.9721V12.9725ZM20.0263 25.9451H8.60096V36.7555H20.0258V25.9447L20.0263 25.9451ZM33.529 25.9451H22.1037V36.7555H33.529V25.9447V25.9451ZM47.0317 25.9451H35.6068V36.7555H47.0317V25.9447V25.9451ZM60.5348 25.9451H49.1091V36.7555H60.5348V25.9447V25.9451ZM74.0375 25.9451H62.6118V36.7555H74.0375V25.9447V25.9451Z" fill="#2396ED"/>
</g>
<defs>
<clipPath id="clip0_135:443">
<rect width="110.703" height="80" fill="white"/>
</clipPath>
</defs>
</svg>
