<svg width="80" height="80" viewBox="0 0 80 80" fill="none" xmlns="http://www.w3.org/2000/svg">
<g clip-path="url(#clip0_221:140)">
<path d="M80 61.9584C78.8357 62.3988 77.5505 62.3979 76.3868 61.9557C75.2231 61.5136 74.2615 60.6609 73.6834 59.5584L62.1834 43.6551L60.5167 41.4318L47.1734 59.5784C46.63 60.6346 45.7205 61.4567 44.615 61.8911C43.5096 62.3254 42.2837 62.3423 41.1667 61.9385L58.36 38.8718L42.3667 18.0351C43.5167 17.6207 44.7744 17.6152 45.9279 18.0196C47.0815 18.4239 48.0605 19.2134 48.7 20.2551L60.62 36.3551L72.6067 20.3218C73.1543 19.2844 74.064 18.4844 75.1628 18.0739C76.2617 17.6633 77.4731 17.6709 78.5667 18.0951L72.36 26.3318L63.9534 37.2751C63.7199 37.4834 63.5331 37.7386 63.4052 38.0241C63.2773 38.3096 63.2112 38.6189 63.2112 38.9318C63.2112 39.2446 63.2773 39.5539 63.4052 39.8394C63.5331 40.125 63.7199 40.3802 63.9534 40.5884L79.9667 61.9618L80 61.9584ZM0.00670665 38.5851L1.40671 31.6685C5.25337 17.9918 20.9334 12.3018 31.72 20.7684C38.0367 25.7318 39.6134 32.7585 39.3034 40.6785H3.72004C3.14337 54.8218 13.35 63.3618 26.4 58.9985C28.5156 58.2369 30.4092 56.9626 31.9112 55.2895C33.4133 53.6164 34.4769 51.5969 35.0067 49.4118C35.6967 47.1918 36.8334 46.8118 38.92 47.4518C38.5723 50.1597 37.6151 52.7536 36.1203 55.0382C34.6255 57.3228 32.6321 59.2387 30.29 60.6418C26.4214 62.7579 21.9828 63.5966 17.6088 63.038C13.2348 62.4794 9.14937 60.5522 5.93671 57.5318C2.76014 53.9564 0.840294 49.4401 0.47004 44.6718C0.47004 43.8884 0.203373 43.1551 0.0233733 42.4518C0.00714676 41.1641 -0.00063119 39.8763 3.99876e-05 38.5884L0.00670665 38.5851ZM3.76337 37.6318H35.9434C35.7434 27.3784 29.2734 20.1051 20.6434 20.0384C11.0367 19.9051 4.16337 27.0184 3.74004 37.5851L3.76337 37.6318Z" fill="black"/>
</g>
<defs>
<clipPath id="clip0_221:140">
<rect width="80" height="80" fill="white"/>
</clipPath>
</defs>
</svg>
