<svg width="80" height="80" viewBox="0 0 80 80" fill="none" xmlns="http://www.w3.org/2000/svg">
<path d="M14.5 61.5006L14.925 60.9081L34.975 22.8731L35.0175 22.4706L26.18 5.87058C26.0182 5.56703 25.7651 5.32203 25.4564 5.17024C25.1477 5.01846 24.7991 4.96758 24.4599 5.02481C24.1207 5.08203 23.8081 5.24446 23.5663 5.48911C23.3245 5.73376 23.1657 6.04825 23.1125 6.38808L14.5 61.5006Z" fill="#FFC24A"/>
<path d="M14.751 61.0505L15.071 60.4255L34.9135 22.7855L26.0985 6.12046C25.9531 5.83064 25.7178 5.59572 25.4277 5.45091C25.1376 5.30609 24.8084 5.25917 24.4894 5.31717C24.1704 5.37517 23.8787 5.53497 23.6582 5.77263C23.4376 6.01029 23.3 6.31302 23.266 6.63546L14.751 61.0505Z" fill="#FFA712"/>
<path d="M41.4606 35.0255L48.0406 28.2755L41.4581 15.723C41.3132 15.4529 41.0978 15.2271 40.8348 15.0696C40.5717 14.9122 40.2709 14.8291 39.9644 14.8291C39.6578 14.8291 39.357 14.9122 39.094 15.0696C38.8309 15.2271 38.6155 15.4529 38.4706 15.723L34.9531 22.428V23.0005L41.4606 35.0255Z" fill="#F4BD62"/>
<path d="M41.3426 34.7501L47.7401 28.2001L41.3426 16.0001C41.2379 15.736 41.059 15.5078 40.8276 15.3431C40.5961 15.1784 40.3219 15.0841 40.0381 15.0717C39.7543 15.0593 39.473 15.1292 39.228 15.2731C38.9831 15.417 38.785 15.6286 38.6576 15.8826L35.1226 22.7051L35.0176 23.0526L41.3426 34.7501Z" fill="#FFA50E"/>
<path d="M14.5049 61.5022L14.6974 61.3072L15.3949 61.0247L41.0449 35.4696L41.3699 34.5846L34.9724 22.3896L14.5049 61.5022V61.5022Z" fill="#F6820C"/>
<path d="M42.28 74.3908L65.5 61.4433L58.865 20.6158C58.8174 20.328 58.6915 20.0588 58.501 19.8379C58.3105 19.617 58.0628 19.4528 57.7851 19.3635C57.5074 19.2741 57.2105 19.2629 56.9269 19.3313C56.6433 19.3996 56.384 19.5448 56.1775 19.7508L14.5 61.5008L37.5825 74.3883C38.3001 74.7887 39.1082 74.9989 39.93 74.9989C40.7518 74.9989 41.5599 74.7887 42.2775 74.3883" fill="#FDE068"/>
<path d="M65.2885 61.3362L58.7085 20.8162C58.6969 20.5409 58.6038 20.2753 58.4412 20.0529C58.2785 19.8305 58.0535 19.6613 57.7947 19.5669C57.5359 19.4724 57.2549 19.4568 56.9872 19.5221C56.7195 19.5874 56.4772 19.7306 56.291 19.9337L14.751 61.4237L37.5785 74.1737C38.2904 74.5709 39.092 74.7793 39.9072 74.7793C40.7224 74.7793 41.5241 74.5709 42.236 74.1737L65.2885 61.3362Z" fill="#FCCA3F"/>
<path d="M42.28 73.9993C41.5624 74.3997 40.7543 74.6099 39.9325 74.6099C39.1107 74.6099 38.3026 74.3997 37.585 73.9993L14.69 61.3043L14.5 61.4993L37.5825 74.3868C38.3001 74.7872 39.1082 74.9974 39.93 74.9974C40.7518 74.9974 41.5599 74.7872 42.2775 74.3868L65.5 61.4418L65.4425 61.0918L42.28 73.9993Z" fill="#EEAB37"/>
</svg>
