<svg width="100" height="80" viewBox="0 0 100 80" fill="none" xmlns="http://www.w3.org/2000/svg">
<g clip-path="url(#clip0_135:437)">
<path d="M66.1532 22.0655L74.7951 13.4235L75.3711 9.78467C59.6231 -4.53494 34.5897 -2.91125 20.3932 13.1726C16.4503 17.6398 13.5248 23.2091 11.9648 28.9602L15.06 28.5241L32.3435 25.6736L33.6779 24.3093C41.366 15.8658 54.3652 14.7299 63.2421 21.914L66.1532 22.0655Z" fill="#EA4335"/>
<path d="M87.1061 28.7063C85.1198 21.3914 81.0415 14.8154 75.3713 9.78516L63.2424 21.9141C65.7702 23.9795 67.796 26.592 69.1669 29.5545C70.5379 32.517 71.2182 35.7521 71.1566 39.0158V41.1688C77.1177 41.1688 81.9515 46.0019 81.9515 51.9634C81.9515 57.9254 77.1181 62.6372 71.1566 62.6372H49.5368L47.4141 64.9417V77.8892L49.5368 79.9207H71.1562C86.663 80.0415 99.3321 67.69 99.4529 52.1832C99.4889 47.5556 98.3806 42.9908 96.2265 38.8949C94.0724 34.799 90.9394 31.299 87.1061 28.7063Z" fill="#4285F4"/>
<path d="M27.9474 79.921H49.5369V62.6371H27.9474C26.4191 62.6369 24.9089 62.3059 23.5206 61.667L20.4577 62.6068L11.7551 71.2487L10.9971 74.1901C15.8775 77.8751 21.832 79.9474 27.9474 79.921Z" fill="#34A853"/>
<path d="M27.9469 23.8547C12.4401 23.9475 -0.0557849 36.5937 0.0366423 52.1009C0.0621362 56.3741 1.06266 60.5851 2.96198 64.4131C4.8613 68.2411 7.60931 71.585 10.9966 74.1902L23.5201 61.6675C18.0871 59.2123 15.6724 52.8186 18.1271 47.3855C20.5815 41.9525 26.9761 39.5378 32.4087 41.9921C34.8028 43.0738 36.7202 44.9914 37.8017 47.3855L50.3252 34.862C47.6967 31.4257 44.3089 28.6439 40.4267 26.7344C36.5446 24.8248 32.2733 23.8392 27.9469 23.8547Z" fill="#FBBC05"/>
</g>
<defs>
<clipPath id="clip0_135:437">
<rect width="99.4175" height="80" fill="white" transform="translate(0.0361328)"/>
</clipPath>
</defs>
</svg>
