<svg width="80" height="80" viewBox="0 0 80 80" fill="none" xmlns="http://www.w3.org/2000/svg">
<g clip-path="url(#clip0_135:340)">
<path d="M78.4896 36.4326L43.5546 1.51013C43.0762 1.03051 42.5079 0.649986 41.8822 0.390351C41.2565 0.130716 40.5858 -0.00292969 39.9084 -0.00292969C39.2309 -0.00292969 38.5602 0.130716 37.9345 0.390351C37.3088 0.649986 36.7405 1.03051 36.2621 1.51013L29.0221 8.76263L38.2271 17.9551C39.3084 17.5883 40.4709 17.5318 41.5826 17.7921C42.6944 18.0524 43.711 18.619 44.5171 19.4276C46.2371 21.1476 46.7171 23.6201 45.9896 25.7551L54.8446 34.6226C55.9295 34.2448 57.099 34.1812 58.2185 34.4391C59.338 34.6969 60.3618 35.2658 61.1721 36.0801C63.5821 38.4751 63.5821 42.3551 61.1721 44.7526C60.6039 45.322 59.929 45.7737 59.186 46.0819C58.443 46.39 57.6465 46.5487 56.8421 46.5487C56.0377 46.5487 55.2412 46.39 54.4982 46.0819C53.7552 45.7737 53.0803 45.322 52.5121 44.7526C51.6588 43.8988 51.0754 42.8129 50.8344 41.6301C50.5935 40.4473 50.7057 39.2197 51.1571 38.1001L42.8621 29.8451V51.6026C43.4471 51.8901 44.0071 52.2801 44.4896 52.7626C46.8721 55.1726 46.8721 59.0376 44.4896 61.4351C43.3346 62.5854 41.771 63.2313 40.1409 63.2313C38.5108 63.2313 36.9471 62.5854 35.7921 61.4351C35.0774 60.7202 34.5505 59.8397 34.2584 58.8719C33.9662 57.9041 33.9178 56.8792 34.1175 55.8882C34.3172 54.8972 34.7587 53.971 35.4029 53.1919C36.0471 52.4128 36.8738 51.805 37.8096 51.4226V29.4576C37.0632 29.1406 36.383 28.686 35.8046 28.1176C34.9443 27.2596 34.3596 26.1644 34.1254 24.9721C33.8911 23.7799 34.0179 22.5449 34.4896 21.4251L25.4521 12.3376L1.49461 36.2826C0.536872 37.2546 0 38.5643 0 39.9289C0 41.2934 0.536872 42.6032 1.49461 43.5751L36.4296 78.4976C36.908 78.9772 37.4763 79.3578 38.102 79.6174C38.7277 79.877 39.3984 80.0107 40.0759 80.0107C40.7533 80.0107 41.424 79.877 42.0497 79.6174C42.6754 79.3578 43.2437 78.9772 43.7221 78.4976L78.4871 43.7326C78.9667 43.2542 79.3473 42.6859 79.6069 42.0602C79.8665 41.4346 80.0002 40.7638 80.0002 40.0864C80.0002 39.409 79.8665 38.7382 79.6069 38.1125C79.3473 37.4868 78.9667 36.9185 78.4871 36.4401L78.4896 36.4326Z" fill="black"/>
</g>
<defs>
<clipPath id="clip0_135:340">
<rect width="80" height="80" fill="white"/>
</clipPath>
</defs>
</svg>
