<svg width="215" height="80" viewBox="0 0 215 80" fill="none" xmlns="http://www.w3.org/2000/svg">
<g clip-path="url(#clip0_135:449)">
<path d="M122.592 5.53953L123.06 5.85203C128.565 9.48745 132.512 14.4733 135.109 20.4979C135.732 21.4324 135.317 21.952 134.07 22.2633L131.961 22.8033C127.191 24.032 123.406 25.0654 118.699 26.2941L116.015 26.9933C115.048 27.2324 114.781 27.132 113.753 25.9612L113.608 25.7949C112.142 24.1333 111.044 23.0233 109.101 22.0324L108.726 21.8479C102.183 18.6283 95.8469 19.5629 89.9264 23.4062C82.8631 27.9762 79.2277 34.7279 79.3314 43.1412C79.4356 51.4504 85.1481 58.3058 93.3539 59.4483C100.417 60.3833 106.337 57.8904 111.011 52.5933C111.946 51.4504 112.777 50.2041 113.816 48.7499H93.7698C91.5885 48.7499 91.0694 47.3999 91.7964 45.6341L92.1564 44.7862C93.4914 41.6804 95.5619 37.2162 96.9064 34.6637L97.1998 34.1141C97.5589 33.4916 98.2881 32.6504 99.6902 32.6504H133.117C134.618 27.8941 137.054 23.3999 140.303 19.1474C147.885 9.1762 157.026 3.98245 169.386 1.80162C179.981 -0.0683844 189.952 0.970366 198.989 7.0987C207.194 12.7074 212.284 20.2904 213.634 30.2612C215.4 44.2837 211.349 55.7091 201.689 65.4729C194.834 72.432 186.421 76.7945 176.761 78.7679C173.956 79.2874 171.152 79.3912 168.451 79.7029C158.999 79.4949 150.378 76.7945 143.107 70.5624C137.994 66.1416 134.471 60.7091 132.721 54.3841C131.492 56.8627 130.032 59.2191 128.358 61.4216C120.879 71.2895 111.116 77.4174 98.7556 79.0799C88.5764 80.4299 79.1244 78.4562 70.8148 72.2241C63.1285 66.4074 58.766 58.7212 57.6231 49.1658C56.2731 37.8437 59.5969 27.6645 66.4523 18.732C73.8273 9.07203 83.5906 2.94412 95.5356 0.762866C105.119 -0.970468 114.301 0.0982821 122.592 5.53953H122.592ZM172.003 20.4237L171.671 20.4979C162.011 22.6791 155.779 28.807 153.494 38.5708C151.624 46.6724 155.571 54.8783 163.05 58.202C168.762 60.6949 174.475 60.3833 179.98 57.5787C188.186 53.3204 192.652 46.6724 193.172 37.7399C193.068 36.3899 193.068 35.3508 192.86 34.312C191.011 24.1449 181.75 18.3437 172.003 20.4237ZM49.2098 39.4016C49.6252 39.4016 49.8331 39.7133 49.8331 40.1287L49.6252 42.6216C49.6252 43.037 49.2098 43.3487 48.8981 43.3487L26.2548 43.2449C25.8394 43.2449 25.7356 42.9333 25.9431 42.6216L27.3973 40.0249C27.6052 39.7133 28.0206 39.4016 28.436 39.4016H49.2098ZM51.4948 29.8458C51.9102 29.8458 52.1181 30.1574 52.0144 30.4691L51.1831 32.962C51.0794 33.3774 50.6639 33.5849 50.2485 33.5849L1.11853 33.6891C0.70311 33.6891 0.59936 33.4812 0.80686 33.1695L2.98811 30.3654C3.19603 30.0537 3.71519 29.8458 4.13061 29.8458H51.4948ZM56.896 20.2899C57.3114 20.2899 57.4152 20.6016 57.2077 20.9133L55.4419 23.6137C55.2339 23.9254 54.7148 24.237 54.4031 24.237L16.8031 24.1329C16.3873 24.1329 16.2835 23.9254 16.491 23.6137L18.6723 20.8095C18.8802 20.4979 19.3994 20.2899 19.8148 20.2899H56.896Z" fill="#00ACD7"/>
</g>
<defs>
<clipPath id="clip0_135:449">
<rect width="213.333" height="80" fill="white" transform="translate(0.703125)"/>
</clipPath>
</defs>
</svg>
