<svg width="80" height="90" viewBox="0 0 80 90" fill="none" xmlns="http://www.w3.org/2000/svg">
<g clip-path="url(#clip0_135:313)">
<path fill-rule="evenodd" clip-rule="evenodd" d="M47.6801 10.3009L66.1632 20.9728C66.6968 20.4082 67.3092 19.9236 67.9813 19.5341C71.8145 17.3303 76.7038 18.6388 78.9304 22.4722C81.1341 26.3056 79.8257 31.1947 75.9923 33.4212C75.3251 33.8054 74.6062 34.0917 73.8576 34.2712V55.6228C74.598 55.8027 75.3091 56.087 75.9695 56.4672C79.8257 58.6938 81.1341 63.5831 78.9076 67.4166C76.7038 71.2497 71.7916 72.5581 67.9582 70.3547C67.2156 69.9286 66.5465 69.3855 65.977 68.7463L47.6063 79.3525C47.8754 80.1671 48.012 81.0196 48.011 81.8775C48.011 86.2847 44.4304 89.8888 40.0001 89.8888C35.5698 89.8888 31.9891 86.3075 31.9891 81.8775C31.9891 81.09 32.1023 80.3294 32.3132 79.6109L13.8351 68.9422C13.3073 69.4956 12.7036 69.9712 12.042 70.3547C8.18571 72.5581 3.29633 71.2497 1.09258 67.4166C-1.11086 63.5831 0.197581 58.6938 4.03071 56.4672C4.69105 56.0869 5.40213 55.8025 6.14258 55.6225V34.2712C5.39395 34.0917 4.67503 33.8054 4.00789 33.4212C0.174456 31.2178 -1.13398 26.3056 1.06977 22.4722C3.27352 18.6388 8.18539 17.3303 12.0188 19.5341C12.6873 19.9215 13.2966 20.403 13.8282 20.9637L32.3166 10.2891C32.0987 9.54934 31.9884 8.7821 31.9891 8.01094C31.9891 3.58125 35.5698 0 40.0001 0C44.4304 0 48.011 3.58094 48.011 8.01094C48.011 8.80719 47.8954 9.57563 47.6801 10.3009ZM45.7545 13.5891L64.2816 24.2859C63.9866 25.3172 63.902 26.3973 64.0328 27.4619C64.1637 28.5265 64.5073 29.554 65.0432 30.4831C66.171 32.445 68.0082 33.7456 70.0473 34.2525V55.6306C69.9432 55.6559 69.8398 55.6838 69.737 55.7131L45.5391 13.8031C45.6123 13.7331 45.6841 13.6619 45.7545 13.5894V13.5891ZM34.466 13.8078L10.2685 55.7172C10.1639 55.6869 10.0587 55.6588 9.95289 55.6328V34.2525C11.992 33.7456 13.8291 32.445 14.957 30.4831C15.494 29.5522 15.8379 28.5226 15.9682 27.4558C16.0985 26.389 16.0125 25.3069 15.7154 24.2741L34.2373 13.5803C34.312 13.6575 34.3882 13.7334 34.466 13.8075V13.8078ZM42.2385 15.7062L66.4304 57.6062C65.8762 58.135 65.4013 58.7409 65.0201 59.4053C64.6399 60.0657 64.3556 60.7767 64.1757 61.5172H15.8251C15.645 60.7767 15.3605 60.0656 14.9801 59.4053C14.5976 58.7455 14.1235 58.1433 13.572 57.6166L37.7685 15.7081C38.4939 15.917 39.2452 16.0226 40.0001 16.0219C40.7773 16.0219 41.5282 15.9119 42.2385 15.7062ZM45.9245 76.4806L64.3313 65.8531C64.2762 65.6796 64.2269 65.5043 64.1835 65.3275H15.8148C15.7891 65.4316 15.7613 65.5347 15.7316 65.6375L34.2285 76.3172C34.9755 75.5405 35.8719 74.923 36.8638 74.5018C37.8556 74.0807 38.9225 73.8646 40.0001 73.8666C41.1153 73.8646 42.2187 74.0962 43.239 74.5464C44.2593 74.9966 45.1741 75.6555 45.9245 76.4806Z" fill="#E535AB"/>
</g>
<defs>
<clipPath id="clip0_135:313">
<rect width="80" height="90" fill="white"/>
</clipPath>
</defs>
</svg>
