<svg width="72" height="81" viewBox="0 0 72 81" fill="none" xmlns="http://www.w3.org/2000/svg">
<g clip-path="url(#clip0_135:344)">
<path d="M64.6737 0.25C68.6024 0.25 71.7951 3.40284 71.8588 7.31723L71.8596 7.43597V72.908C71.8596 76.8367 68.706 80.0294 64.7924 80.0931L64.6737 80.0939H7.18597C3.25726 80.0939 0.0645614 76.9402 0.000842105 73.027L0 72.908V7.43597C0 3.50642 3.15368 0.314561 7.06723 0.250842L7.18597 0.25H64.6737ZM64.6737 4.24214H7.18597C5.45291 4.24214 4.03705 5.63105 3.99326 7.35372L3.99214 7.43597V72.908C3.99214 74.641 5.38105 76.0569 7.10372 76.1007L7.18597 76.1018H64.6737C66.4076 76.1018 67.8226 74.7132 67.8664 72.9905L67.8675 72.908V7.43597C67.8675 5.6754 66.4354 4.24214 64.6737 4.24214ZM17.9649 52.1489L26.9474 60.1332L17.9649 68.1178V52.1487V52.1489ZM25.9492 12.2267V34.8934C29.9354 33.596 35.5076 32.1874 40.9201 32.1874C45.8554 32.1874 48.8095 34.1279 50.4185 35.7557C53.8175 39.1943 53.8984 43.5648 53.8939 44.1478V44.1641L53.8947 68.1175H45.9105V44.2741C45.8712 42.4106 44.9729 40.172 40.9201 40.172C32.8831 40.172 23.8776 44.1739 23.6104 44.2935L23.6048 44.296L17.9649 46.851V12.2264H25.9492V12.2267ZM53.8947 12.2267C53.3558 16.7617 51.5172 21.1092 47.9065 25.2013H39.922C43.0599 21.0842 45.0302 16.7519 45.9105 12.2267H53.8947Z" fill="#430098"/>
</g>
<defs>
<clipPath id="clip0_135:344">
<rect width="71.8596" height="80" fill="white" transform="translate(0 0.25)"/>
</clipPath>
</defs>
</svg>
