<svg width="80" height="80" viewBox="0 0 80 80" fill="none" xmlns="http://www.w3.org/2000/svg">
<path d="M14.7542 68.0025L9.13672 5H70.8617L65.2367 67.9925L39.9617 75L14.7542 68.0025Z" fill="#E44F26"/>
<path d="M40 69.6429L60.425 63.9804L65.23 10.1504H40V69.6429Z" fill="#F1662A"/>
<path d="M40 33.5189H29.775L29.07 25.6064H40V17.8789H20.625L20.81 19.9539L22.7075 41.2464H40V33.5189Z" fill="#EBEBEB"/>
<path d="M39.9983 53.5844L39.9633 53.5944L31.3583 51.2719L30.8083 45.1094H23.0508L24.1333 57.2394L39.9633 61.6343L39.9983 61.6243V53.5844Z" fill="#EBEBEB"/>
<path d="M39.9727 33.5176V41.2451H49.4876L48.5926 51.2676L39.9727 53.5926V61.6325L55.8151 57.2401L55.9301 55.9351L57.7451 35.5926L57.9351 33.5176H39.9727Z" fill="white"/>
<path d="M39.9727 17.8789V25.6064H58.6377L58.7927 23.8714L59.1452 19.9539L59.3302 17.8789H39.9727Z" fill="white"/>
</svg>
