<svg width="80" height="80" viewBox="0 0 80 80" fill="none" xmlns="http://www.w3.org/2000/svg">
<path d="M0 0H80V80H0V0Z" fill="#F7DF1E"/>
<path d="M21.0355 66.8525L27.1573 63.1475C28.3386 65.2416 29.413 67.0134 31.9902 67.0134C34.4605 67.0134 36.0183 66.0472 36.0183 62.2884V36.7266H43.5361V62.3947C43.5361 70.1812 38.9717 73.7256 32.3124 73.7256C26.2983 73.7256 22.8073 70.6109 21.0352 66.8519" fill="black"/>
<path d="M47.6195 66.0472L53.7407 62.5031C55.3523 65.1347 57.4466 67.0678 61.1516 67.0678C64.267 67.0678 66.2532 65.5103 66.2532 63.3622C66.2532 60.7847 64.2126 59.8716 60.7757 58.3684L58.8966 57.5622C53.4726 55.2537 49.8748 52.3538 49.8748 46.2319C49.8748 40.5931 54.1707 36.2969 60.8835 36.2969C65.6629 36.2969 69.0998 37.9619 71.5698 42.3116L65.716 46.0709C64.4269 43.7619 63.0313 42.8491 60.8832 42.8491C58.6813 42.8491 57.2851 44.2453 57.2851 46.0709C57.2851 48.3262 58.6813 49.2397 61.9032 50.6359L63.7826 51.4413C70.1732 54.1803 73.771 56.9725 73.771 63.255C73.771 70.0219 68.4548 73.7269 61.3126 73.7269C54.3316 73.7269 49.8207 70.3975 47.6191 66.0475" fill="black"/>
</svg>
