<svg width="74" height="81" viewBox="0 0 74 81" fill="none" xmlns="http://www.w3.org/2000/svg">
<g clip-path="url(#clip0_135:348)">
<path d="M68.5118 39.5317C68.5118 35.4305 65.1868 32.1056 61.0856 32.1056C60.8216 32.1056 60.5615 32.1197 60.3049 32.1469L70.5047 2.06348H27.1589L37.3446 32.1206C37.1943 32.1111 37.0437 32.1062 36.8931 32.1059C32.7919 32.1059 29.467 35.4303 29.467 39.532C29.467 42.8471 31.6397 45.6539 34.6381 46.6088C33.0545 49.352 31.0616 51.8229 28.799 53.9577C25.7222 56.8601 22.2011 59.0611 18.3928 60.4171C13.8585 58.0878 11.7174 52.9076 13.6493 48.3657C13.8676 47.8526 14.0903 47.3327 14.3032 46.8151C17.588 46.0485 20.036 43.1038 20.036 39.5852C20.036 35.4837 16.7111 32.159 12.6096 32.159C8.50812 32.159 5.18345 35.4837 5.18345 39.5852C5.18345 42.1002 6.43462 44.3218 8.34755 45.6652C6.50953 49.85 3.80762 54.23 2.96578 59.3062C1.95688 65.3895 2.96239 71.8472 8.22402 75.4941C20.4779 83.9872 33.7794 70.2291 47.8039 66.7705C52.8866 65.5173 58.466 65.7192 62.944 63.1258C66.3068 61.1781 68.5239 57.9501 69.1529 54.3264C69.7748 50.7464 68.8685 47.1821 66.7846 44.2919C67.9026 42.9579 68.5142 41.2723 68.5118 39.5317Z" fill="#99425B"/>
<path d="M67.3672 54.0162C66.821 57.1625 64.8778 59.9105 62.0363 61.5566C59.3872 63.0907 56.213 63.5486 52.8518 64.0332C51.0514 64.2927 49.1896 64.5615 47.3708 65.0098C42.5618 66.1957 37.9037 68.5095 33.3994 70.747C24.3845 75.2247 16.5994 79.0913 9.2586 74.0035C3.88136 70.2769 4.12955 63.3816 4.75599 59.6032C5.33662 56.1024 6.90637 52.8784 8.42411 49.7607C8.68269 49.2308 8.93918 48.6999 9.19358 48.168C9.95866 48.4739 10.7614 48.6753 11.5803 48.7667C10.0351 53.8661 12.4651 59.4107 17.565 62.0306L18.2633 62.3894L19.0022 62.1262C23.0341 60.6901 26.7495 58.3862 30.0448 55.277C32.1748 53.2674 34.0063 51.0441 35.5116 48.6684C35.9692 48.7374 36.4314 48.7721 36.8942 48.7721C41.5752 48.7721 45.4514 45.2728 46.0513 40.7532C47.9673 40.6831 50.0024 40.6825 51.9294 40.7526C52.5287 45.2728 56.4055 48.7724 61.0865 48.7724C63.0438 48.7724 64.8592 48.159 66.3549 47.117C67.3932 49.2425 67.7807 51.634 67.3672 54.0162ZM12.611 33.973C15.7058 33.973 18.2234 36.4908 18.2234 39.5857C18.2234 40.6972 17.8972 41.7338 17.3372 42.6067C16.4043 44.0617 14.8185 45.059 12.9966 45.1834C12.8691 45.1919 12.7404 45.1981 12.611 45.1981C11.9212 45.1981 11.2606 45.0723 10.6497 44.8439C9.4194 44.3813 8.38914 43.5038 7.73662 42.3628C7.2521 41.5175 6.99752 40.56 6.99825 39.5857C6.99825 36.4908 9.51613 33.973 12.611 33.973ZM31.2821 39.5323C31.2821 36.7204 33.3607 34.3857 36.0614 33.982C36.3334 33.941 36.6115 33.9198 36.8945 33.9198C38.6938 33.9198 40.2958 34.7721 41.3231 36.0928C41.5804 36.4221 41.8002 36.7791 41.9783 37.1571C42.3272 37.9003 42.5077 38.7113 42.5069 39.5323C42.5069 39.9809 42.4527 40.4171 42.3529 40.8354C41.8059 43.1252 39.8534 44.8756 37.4607 45.1164C37.2747 45.1351 37.0859 45.1447 36.8945 45.1447C35.815 45.1456 34.7583 44.8332 33.8528 44.2455C32.3076 43.2445 31.2821 41.5063 31.2821 39.5323ZM54.7068 32.8581C53.4855 34.0238 52.6065 35.5017 52.1652 37.1314C50.0497 37.0534 47.9321 37.0534 45.8166 37.1314C45.3417 35.3697 44.3574 33.8155 43.033 32.635L48.8408 20.8917L54.7068 32.8583V32.8581ZM29.6897 3.87799H67.9758L58.933 30.5479C58.5439 30.6411 58.1614 30.7596 57.7878 30.9027L48.8549 12.68L39.8966 30.7939C39.5061 30.6598 39.107 30.5523 38.702 30.4719L29.6897 3.87799ZM66.6989 39.5325C66.6989 40.0951 66.6149 40.6384 66.4603 41.1515C66.0935 42.3594 65.3316 43.4092 64.2969 44.1324C63.3565 44.7924 62.2353 45.146 61.0865 45.145C58.4951 45.145 56.3091 43.379 55.6662 40.9875C55.5386 40.5131 55.474 40.0239 55.474 39.5325C55.474 38.7653 55.6289 38.0337 55.9088 37.3672C56.0532 37.0261 56.231 36.7002 56.4397 36.3942C57.4497 34.9033 59.154 33.9201 61.0865 33.9201C61.2637 33.9201 61.4384 33.9291 61.6117 33.9455C64.4612 34.211 66.6992 36.6147 66.6992 39.5325H66.6989ZM70.3266 39.5325C70.3266 35.0214 67.0763 31.2575 62.7953 30.4535L73.0359 0.25H24.6302L34.8866 30.5146C30.7543 31.4342 27.6546 35.1269 27.6546 39.5323C27.6546 42.8402 29.4028 45.7457 32.0227 47.3785C30.7625 49.2561 29.2682 51.0229 27.5557 52.6387C24.8397 55.2007 21.8141 57.1438 18.5522 58.4224C15.2665 56.3585 13.8777 52.4662 15.3199 49.0757L15.433 48.81L15.645 48.3113C19.2538 47.0525 21.8508 43.6179 21.8508 39.5857C21.8508 34.4906 17.7058 30.3455 12.611 30.3455C7.51584 30.3455 3.37083 34.4906 3.37083 39.5857C3.37083 42.1573 4.42807 44.486 6.12927 46.1629C5.81198 46.8352 5.4899 47.5052 5.16305 48.1728C3.60743 51.3675 1.84461 54.9884 1.17775 59.0096C-0.146347 66.9954 1.98962 73.3793 7.19245 76.985C10.3495 79.173 13.5557 80.0335 16.782 80.0335C22.8569 80.0335 29.0025 76.9813 35.0132 73.9956C39.342 71.8458 43.8183 69.6224 48.2398 68.5318C49.885 68.1262 51.5778 67.8819 53.37 67.6236C56.9242 67.1108 60.5991 66.5807 63.8545 64.6955C67.6281 62.5098 70.211 58.8433 70.9414 54.637C71.5684 51.0257 70.8139 47.4087 68.9737 44.341C69.8604 42.8939 70.3288 41.2294 70.3269 39.5323L70.3266 39.5325Z" fill="white"/>
</g>
<defs>
<clipPath id="clip0_135:348">
<rect width="72.3675" height="80" fill="white" transform="translate(0.793945 0.25)"/>
</clipPath>
</defs>
</svg>
