<svg width="81" height="81" viewBox="0 0 81 81" fill="none" xmlns="http://www.w3.org/2000/svg">
<g clip-path="url(#clip0_135:421)">
<path d="M58.1409 32.1C53.9275 13.5 43.9675 7.38667 42.8975 5.05C41.9642 3.73667 41.1309 1.87 40.4475 0.25C40.3275 1.9 40.2642 2.53333 38.7042 4.19667C36.2942 6.08333 23.9109 16.47 22.9042 37.5967C21.9642 57.3033 37.1375 69.0467 39.1975 70.5433L39.4309 70.71C39.8598 73.8825 40.2266 77.0631 40.5309 80.25H42.1342C42.5139 76.8105 43.0814 73.3942 43.8342 70.0167C45.2242 69.03 45.8475 68.4733 46.6675 67.7067C50.5507 64.1143 53.6368 59.747 55.7263 54.8871C57.8157 50.0272 58.862 44.783 58.7975 39.4933C58.8309 36.78 58.4542 33.9533 58.1409 32.1ZM40.3542 59.4167C40.3542 59.4167 40.3542 31.78 41.2709 31.7833C41.9809 31.7833 42.9042 67.4333 42.9042 67.4333C41.6342 67.2833 40.3542 61.5667 40.3542 59.4167Z" fill="black"/>
</g>
<defs>
<clipPath id="clip0_135:421">
<rect width="80" height="80" fill="white" transform="translate(0.831055 0.25)"/>
</clipPath>
</defs>
</svg>
