<svg width="80" height="80" viewBox="0 0 80 80" fill="none" xmlns="http://www.w3.org/2000/svg">
<g clip-path="url(#clip0_135:311)">
<path d="M37.3803 0.0215104C37.2084 0.0371354 36.6609 0.0918229 36.1681 0.130885C24.8056 1.15526 14.1622 7.28526 7.42125 16.7071C3.6675 21.9459 1.26688 27.8884 0.359688 34.1828C0.0390625 36.3796 0 37.0287 0 40.0078C0 42.9868 0.0390625 43.6359 0.359688 45.8328C2.53375 60.8531 13.2237 73.4731 27.7222 78.1487C30.3188 78.9856 33.0556 79.5562 36.1681 79.9003C37.3803 80.0331 42.6197 80.0331 43.8319 79.9003C49.2044 79.3059 53.7556 77.9768 58.2444 75.6859C58.9325 75.334 59.0656 75.2403 58.9716 75.1618C58.9091 75.115 55.9766 71.1821 52.4575 66.4281L46.0606 57.7881L38.045 45.9268C33.6344 39.4056 30.0059 34.0731 29.9747 34.0731C29.9434 34.0653 29.9122 39.3356 29.8966 45.7703C29.8728 57.0374 29.8653 57.4909 29.7244 57.7568C29.5212 58.1399 29.3647 58.2965 29.0363 58.4684C28.7859 58.5934 28.5669 58.6168 27.3862 58.6168H26.0331L25.6737 58.3903C25.4509 58.2505 25.2698 58.0533 25.1497 57.8193L24.9853 57.4674L25.0009 41.7906L25.0244 26.1056L25.2669 25.8006C25.3919 25.6365 25.6578 25.4256 25.8456 25.3237C26.1663 25.1674 26.2913 25.1518 27.6441 25.1518C29.2394 25.1518 29.5053 25.2143 29.9197 25.6678C30.0372 25.7928 34.3772 32.3296 39.5697 40.2034C44.7625 48.0768 51.8634 58.8281 55.3509 64.1059L61.6853 73.6996L62.0059 73.4887C64.8447 71.6434 67.8475 69.0162 70.2247 66.2793C75.2844 60.4699 78.5453 53.3862 79.6403 45.8331C79.9609 43.6359 80 42.9868 80 40.0081C80 37.0287 79.9609 36.3799 79.6403 34.1828C77.4662 19.1624 66.7763 6.54245 52.2778 1.86682C49.7203 1.03807 46.9991 0.467135 43.9491 0.123073C43.1984 0.0449479 38.0294 -0.0409896 37.3803 0.0215104ZM53.7556 24.2134C54.1309 24.4009 54.4359 24.7609 54.5453 25.1362C54.6078 25.3393 54.6234 29.6868 54.6078 39.484L54.5847 53.5424L52.1056 49.7424L49.6188 45.9425V35.7231C49.6188 29.1159 49.65 25.4018 49.6969 25.2221C49.8219 24.7843 50.0959 24.4403 50.4712 24.2368C50.7919 24.0728 50.9091 24.0571 52.1369 24.0571C53.2944 24.0571 53.4975 24.0728 53.7556 24.2134Z" fill="black"/>
</g>
<defs>
<clipPath id="clip0_135:311">
<rect width="80" height="80" fill="white"/>
</clipPath>
</defs>
</svg>
