<svg width="72" height="81" viewBox="0 0 72 81" fill="none" xmlns="http://www.w3.org/2000/svg">
<g clip-path="url(#clip0_135:430)">
<path d="M36.2636 80.1025C35.1632 80.1025 34.1362 79.809 33.1826 79.2955L23.4257 73.5001C21.9585 72.6932 22.6921 72.3998 23.1322 72.2531C25.1129 71.5928 25.4796 71.4461 27.5336 70.2721C27.754 70.1254 28.0474 70.1988 28.2672 70.3455L35.7501 74.8205C36.0435 74.9672 36.4103 74.9672 36.6304 74.8205L65.9009 57.8746C66.1944 57.7279 66.3411 57.4345 66.3411 57.0677V23.2488C66.3411 22.882 66.1944 22.5886 65.9009 22.4418L36.6304 5.56904C36.3369 5.42233 35.9702 5.42233 35.7501 5.56904L6.4795 22.4421C6.18607 22.5888 6.03936 22.9556 6.03936 23.249V57.0677C6.03936 57.3611 6.18607 57.7279 6.4795 57.8746L14.4759 62.4961C18.8042 64.6968 21.5181 62.1293 21.5181 59.5618V26.183C21.5181 25.7429 21.8852 25.3027 22.3987 25.3027H26.1401C26.5803 25.3027 27.0204 25.6695 27.0204 26.183V59.5616C27.0204 65.357 23.8658 68.7314 18.3638 68.7314C16.6766 68.7314 15.3562 68.7314 11.615 66.8975L3.91202 62.4961C2.00476 61.3955 0.831055 59.3415 0.831055 57.1408V23.3224C0.831055 21.1217 2.00476 19.0677 3.91202 17.9671L33.1826 1.02122C35.0165 -0.00577083 37.5106 -0.00577083 39.3446 1.02122L68.6151 17.9671C70.5224 19.0674 71.6961 21.1214 71.6961 23.3224V57.1411C71.6961 59.3418 70.5224 61.3957 68.6151 62.4961L39.3446 79.4425C38.3909 79.8827 37.2906 80.1027 36.2636 80.1027V80.1025ZM45.2867 56.8474C32.4488 56.8474 29.8079 50.9789 29.8079 45.9903C29.8079 45.5502 30.1747 45.1101 30.6882 45.1101H34.5028C34.9429 45.1101 35.3099 45.4035 35.3099 45.8436C35.8968 49.7315 37.584 51.6391 45.3601 51.6391C51.5223 51.6391 54.1634 50.2453 54.1634 46.9443C54.1634 45.0367 53.4298 43.6429 43.8196 42.689C35.8234 41.8821 30.8349 40.1216 30.8349 33.7396C30.8349 27.7971 35.8232 24.276 44.1863 24.276C53.5762 24.276 58.198 27.5037 58.7848 34.5462C58.7848 34.7663 58.7115 34.9863 58.5648 35.2064C58.418 35.3531 58.198 35.4998 57.9779 35.4998H54.1634C53.7963 35.4998 53.4298 35.2064 53.3562 34.8396C52.4759 30.805 50.2019 29.4846 44.1863 29.4846C37.4376 29.4846 36.6304 31.832 36.6304 33.5926C36.6304 35.7202 37.584 36.3801 46.6805 37.5538C55.7039 38.7275 59.9585 40.415 59.9585 46.7239C59.8852 53.1796 54.6035 56.8474 45.2867 56.8474Z" fill="#539E43"/>
</g>
<defs>
<clipPath id="clip0_135:430">
<rect width="70.8651" height="80" fill="white" transform="translate(0.831055 0.25)"/>
</clipPath>
</defs>
</svg>
