<svg width="81" height="83" viewBox="0 0 81 83" fill="none" xmlns="http://www.w3.org/2000/svg">
<g clip-path="url(#clip0_135:423)">
<path d="M80.5209 49.4022C80.0412 47.9494 78.7847 46.9375 77.1597 46.6947C76.3934 46.5804 75.5159 46.6291 74.4775 46.8432C72.6675 47.2166 71.3247 47.3588 70.3447 47.3863C74.0437 41.141 77.0516 34.0191 78.7831 27.315C81.5831 16.4747 80.0869 11.5363 78.3384 9.30255C73.7113 3.39005 66.9603 0.213798 58.8159 0.116611C54.4712 0.0634858 50.6572 0.921298 48.6675 1.53817C46.815 1.2113 44.8231 1.0288 42.7331 0.995048C38.8153 0.932548 35.3538 1.78661 32.3959 3.54192C30.7584 2.98817 28.1303 2.20755 25.0953 1.70942C17.9572 0.537548 12.2041 1.45067 7.99594 4.42349C2.90031 8.02286 0.538125 14.2766 0.975 23.011C1.11375 25.7841 2.665 34.2216 5.1075 42.2235C6.51125 46.8229 8.00813 50.6422 9.55656 53.5766C11.7525 57.7375 14.1022 60.1879 16.74 61.0679C18.2184 61.5604 20.9047 61.9054 23.73 59.5522C24.0881 59.986 24.5659 60.4169 25.2 60.8172C26.0053 61.325 26.99 61.74 27.9734 61.986C31.5175 62.8719 34.8372 62.6504 37.6694 61.4085C37.6869 61.9122 37.7003 62.3935 37.7116 62.8091C37.7303 63.4832 37.7491 64.1441 37.7738 64.7622C37.9416 68.9416 38.2259 72.1913 39.0684 74.465C39.1147 74.59 39.1769 74.7807 39.2425 74.9829C39.6628 76.2697 40.3656 78.4241 42.1537 80.1113C44.0053 81.8591 46.245 82.3951 48.2962 82.3951C49.325 82.3951 50.3066 82.26 51.1675 82.0757C54.2362 81.4179 57.7216 80.416 60.2428 76.826C62.6266 73.4322 63.7853 68.3207 63.995 60.2666C64.0222 60.0388 64.0472 59.8213 64.0713 59.6141L64.1213 59.1885L64.6828 59.2379L64.8275 59.2476C67.9531 59.39 71.775 58.7272 74.1222 57.6369C75.9769 56.7763 81.9203 53.6385 80.5209 49.4022Z" fill="black"/>
<path d="M75.1771 50.2257C65.8833 52.1429 65.2442 48.9963 65.2442 48.9963C75.0567 34.436 79.1589 15.9538 75.6192 11.4304C65.9617 -0.908712 49.2446 4.92691 48.9655 5.07816L48.8758 5.09441C47.0396 4.71316 44.9849 4.48629 42.6752 4.44848C38.4702 4.37973 35.2802 5.55098 32.8596 7.3866C32.8596 7.3866 3.03768 -4.89902 4.42487 22.8379C4.71987 28.7385 12.8824 67.4857 22.618 55.7822C26.1764 51.5025 29.6149 47.8841 29.6149 47.8841C31.3224 49.0185 33.3667 49.5972 35.5099 49.3894L35.6764 49.2482C35.6246 49.7794 35.6483 50.2991 35.743 50.9144C33.2349 53.7166 33.9721 54.2085 28.9583 55.2407C23.8849 56.2863 26.8652 58.1475 28.8111 58.6344C31.1702 59.2241 36.6277 60.0597 40.3152 54.8975L40.1683 55.4866C41.1508 56.2738 41.8408 60.6063 41.7252 64.5341C41.6096 68.4616 41.5324 71.1582 42.3064 73.2644C43.0811 75.3707 43.8527 80.1097 50.4439 78.6975C55.9511 77.5172 58.8052 74.4588 59.2024 69.3569C59.4839 65.73 60.1217 66.2663 60.1617 63.0235L60.6733 61.4885C61.263 56.5719 60.7671 54.9857 64.1599 55.7235L64.9849 55.796C67.4817 55.9094 70.7505 55.3941 72.6689 54.5025C76.7996 52.5857 79.2496 49.3847 75.1764 50.2257H75.1771Z" fill="#336791"/>
<path d="M34.6049 25.4768C33.7674 25.3603 33.009 25.4681 32.6252 25.7587C32.4096 25.9221 32.3427 26.1115 32.3246 26.2418C32.2765 26.5871 32.5183 26.969 32.6671 27.1659C33.0877 27.7234 33.7021 28.1065 34.3102 28.1909C34.3983 28.2034 34.4862 28.209 34.5733 28.209C35.5874 28.209 36.5096 27.4193 36.5908 26.8365C36.6924 26.1065 35.6327 25.62 34.6049 25.4771" fill="white"/>
<path d="M62.3495 25.4997C62.2695 24.9276 61.2513 24.7644 60.2851 24.8988C59.3201 25.0332 58.3845 25.4688 58.4626 26.0422C58.5251 26.4882 59.3304 27.2494 60.2835 27.2494C60.3641 27.2494 60.4454 27.2441 60.5273 27.2325C61.1635 27.1444 61.6304 26.7404 61.8523 26.5075C62.1898 26.1526 62.3854 25.7569 62.3495 25.4997Z" fill="white"/>
<path d="M78.2692 50.0073C77.9148 48.9358 76.7742 48.5911 74.8792 48.9823C69.2526 50.1436 67.2376 49.3392 66.576 48.852C70.9495 42.1895 74.5473 34.1358 76.4882 26.6217C77.4076 23.0623 77.9154 19.7567 77.957 17.0623C78.0029 14.1052 77.4992 11.932 76.4604 10.6045C72.2723 5.25297 66.1254 2.38234 58.6848 2.30359C53.5695 2.24609 49.2476 3.55516 48.4098 3.92328C46.6454 3.48453 44.722 3.21516 42.6279 3.18078C38.7879 3.11859 35.4685 4.03797 32.7204 5.91203C31.5267 5.46766 28.4417 4.40859 24.6688 3.80078C18.1463 2.75078 12.9632 3.54641 9.26447 6.16672C4.85104 9.29359 2.81354 14.883 3.20822 22.7792C3.34104 25.4358 4.85479 33.6083 7.24354 41.4348C10.3879 51.7361 13.806 57.5677 17.4023 58.7673C17.8232 58.9077 18.3085 59.0058 18.8438 59.0058C20.1557 59.0058 21.7642 58.4145 23.4376 56.4027C25.4787 53.9541 27.5901 51.565 29.7692 49.2383C31.1829 49.997 32.736 50.4208 34.3245 50.4633C34.3276 50.5048 34.3317 50.5464 34.3354 50.5877C34.062 50.9137 33.7942 51.2445 33.5323 51.5798C32.4317 52.977 32.2026 53.268 28.6598 53.9973C27.652 54.2055 24.9754 54.757 24.936 56.6333C24.8935 58.6833 28.1001 59.5442 28.4654 59.6355C29.7385 59.9542 30.9651 60.1114 32.1348 60.1114C34.9795 60.1114 37.4829 59.1764 39.4835 57.3673C39.422 64.6755 39.7267 71.8767 40.6042 74.0708C41.3229 75.867 43.0785 80.2567 48.6242 80.2564C49.4379 80.2564 50.3335 80.1617 51.3188 79.9505C57.1067 78.7098 59.6201 76.1517 60.5923 70.512C61.1126 67.498 62.0054 60.3008 62.4254 56.4402C63.3117 56.7167 64.4526 56.8433 65.686 56.843C68.2585 56.843 71.227 56.2964 73.0885 55.4323C75.1798 54.4611 78.9535 52.078 78.2692 50.0073ZM64.486 23.9198C64.467 25.0595 64.3101 26.0942 64.1438 27.1742C63.9648 28.3358 63.7798 29.5367 63.7332 30.9945C63.6873 32.4133 63.8645 33.8883 64.0357 35.3148C64.382 38.1961 64.7373 41.1623 63.362 44.0892C63.1335 43.6844 62.93 43.266 62.7526 42.8364C62.5817 42.422 62.2104 41.7564 61.6963 40.8352C59.6967 37.2489 55.0138 28.8508 57.411 25.4239C58.1251 24.4039 59.9373 23.3552 64.486 23.9198ZM58.9723 4.61141C65.6392 4.75859 70.9129 7.25266 74.6467 12.0239C77.5104 15.6836 74.357 32.3358 65.2279 46.7017C65.1361 46.585 65.0438 46.4686 64.951 46.3527L64.8354 46.2083C67.1945 42.3123 66.7332 38.4577 66.3226 35.0402C66.1538 33.6377 65.9945 32.313 66.0351 31.0686C66.077 29.7498 66.2513 28.6186 66.4201 27.5248C66.6273 26.177 66.8382 24.7823 66.7801 23.1383C66.8235 22.9658 66.841 22.762 66.8182 22.5202C66.6698 20.9436 64.8698 16.2252 61.201 11.9545C59.1942 9.61859 56.2676 7.00453 52.2717 5.24141C53.9904 4.88516 56.3407 4.55297 58.9723 4.61141ZM21.6667 54.9302C19.8229 57.147 18.5498 56.722 18.131 56.5827C15.4029 55.6727 12.2373 49.9064 9.44635 40.7627C7.03135 32.8508 5.6201 24.8948 5.50822 22.6639C5.15572 15.6083 6.86604 10.6911 10.592 8.04859C16.6557 3.74859 26.6251 6.32234 30.631 7.62766C30.5735 7.68453 30.5135 7.73766 30.4567 7.79547C23.8829 14.4342 24.0388 25.7767 24.0551 26.4702C24.0545 26.7377 24.077 27.1164 24.1076 27.6373C24.2207 29.5452 24.4313 33.0958 23.8688 37.1167C23.3463 40.8533 24.4982 44.5105 27.0285 47.1508C27.2882 47.4212 27.5612 47.6786 27.8463 47.922C26.7201 49.1283 24.2723 51.7958 21.6667 54.9302ZM28.6913 45.5573C26.652 43.4292 25.7257 40.4692 26.1498 37.4355C26.7435 33.188 26.5245 29.4886 26.4067 27.5011C26.3901 27.223 26.3754 26.9792 26.367 26.787C27.3273 25.9355 31.7776 23.5511 34.9513 24.2783C36.3995 24.6098 37.282 25.5961 37.6488 27.2923C39.5476 36.0745 37.9001 39.7348 36.5763 42.6764C36.3035 43.2823 36.0457 43.8552 35.8257 44.4477L35.6551 44.9058C35.2232 46.0639 34.8213 47.1408 34.5723 48.1633C32.4042 48.157 30.2951 47.2308 28.6913 45.557V45.5573ZM29.0242 57.4011C28.391 57.243 27.8217 56.9683 27.4876 56.7405C27.7667 56.6092 28.2632 56.4305 29.1245 56.253C33.2923 55.3952 33.936 54.7895 35.3417 53.0048C35.6638 52.5955 36.0292 52.1317 36.5351 51.5667L36.5357 51.5661C37.2892 50.7223 37.6338 50.8655 38.2588 51.1248C38.7654 51.3342 39.2589 51.9692 39.4588 52.668C39.5535 52.998 39.6598 53.6242 39.312 54.1117C36.3757 58.223 32.097 58.1702 29.0242 57.4011ZM50.8363 77.6986C45.7376 78.7911 43.9323 76.1895 42.7426 73.2155C41.9748 71.2955 41.5973 62.6373 41.8651 53.0758C41.8685 52.9486 41.8504 52.8258 41.8154 52.7102C41.7841 52.4818 41.7365 52.256 41.6729 52.0345C41.2748 50.6433 40.3045 49.4795 39.1404 48.997C38.6779 48.8055 37.8292 48.4539 36.8092 48.7148C37.0267 47.8186 37.4039 46.8064 37.8129 45.7105L37.9845 45.2495C38.1776 44.7298 38.4201 44.1914 38.6763 43.6214C40.0617 40.5439 41.9588 36.3286 39.8998 26.8058C39.1285 23.2389 36.5529 21.497 32.6485 21.9017C30.3079 22.1439 28.1663 23.0883 27.0982 23.6298C26.8685 23.7461 26.6585 23.8586 26.4623 23.968C26.7604 20.3742 27.8867 13.658 32.0998 9.40859C34.7526 6.73359 38.2854 5.41234 42.5898 5.48359C51.071 5.62234 56.5098 9.97484 59.5792 13.602C62.2242 16.7273 63.6563 19.8758 64.2279 21.5739C59.9295 21.1367 57.006 21.9852 55.5242 24.1039C52.3001 28.7127 57.2879 37.6577 59.6851 41.9567C60.1248 42.7445 60.5042 43.4255 60.6235 43.7148C61.4042 45.6067 62.4148 46.8698 63.1526 47.7917C63.3788 48.0742 63.5982 48.3483 63.7651 48.5877C62.4632 48.963 60.1248 49.8302 60.3379 54.1648C60.166 56.3398 58.9438 66.523 58.3229 70.1208C57.5032 74.8739 55.7542 76.6442 50.8363 77.6989V77.6986ZM72.1189 53.3436C70.7876 53.9614 68.5598 54.4248 66.4435 54.5245C64.106 54.6339 62.916 54.2627 62.636 54.0342C62.5048 51.333 63.5101 51.0508 64.5742 50.752C64.7413 50.7052 64.9045 50.6592 65.062 50.6042C65.1598 50.6839 65.267 50.763 65.3845 50.8405C67.2632 52.0805 70.6142 52.2142 75.3451 51.2377L75.397 51.2273C74.7588 51.8239 73.667 52.6245 72.1189 53.3436Z" fill="white"/>
</g>
<defs>
<clipPath id="clip0_135:423">
<rect width="80" height="82.5" fill="white" transform="translate(0.831055)"/>
</clipPath>
</defs>
</svg>
