<svg width="81" height="81" viewBox="0 0 81 81" fill="none" xmlns="http://www.w3.org/2000/svg">
<g clip-path="url(#clip0_135:351)">
<path d="M79.8349 45.3291C82.6346 23.4131 67.1571 3.37656 45.2812 0.577187C23.4052 -2.2225 3.28867 13.255 0.489297 35.1309C-2.31039 57.0069 13.1671 77.0834 35.043 79.9228C56.959 82.7225 76.9955 67.245 79.8349 45.3291Z" fill="#FF6C37"/>
<path d="M54.6001 25.9319L37.7229 42.809L32.9639 38.0497C49.5607 21.4528 51.2007 22.8925 54.6001 25.9319Z" fill="white"/>
<path d="M37.7225 43.2093C37.6025 43.2093 37.5225 43.1693 37.4429 43.0893L32.6435 38.3302C32.6056 38.2941 32.5754 38.2507 32.5547 38.2025C32.5341 38.1544 32.5234 38.1026 32.5234 38.0502C32.5234 37.9978 32.5341 37.946 32.5547 37.8979C32.5754 37.8498 32.6056 37.8063 32.6435 37.7702C49.5207 20.8933 51.2804 22.493 54.8397 25.6924C54.9194 25.7724 54.9594 25.8524 54.9594 25.9724C54.9594 26.0924 54.9194 26.1724 54.8397 26.2524L37.9625 43.0893C37.9225 43.1693 37.8025 43.2093 37.7225 43.2093ZM33.5235 38.0502L37.7225 42.2496L53.9997 25.9724C51.0404 23.333 49.0404 22.533 33.5235 38.0505V38.0502Z" fill="#FF6C37"/>
<path d="M42.5623 47.6491L37.9629 43.0497L54.8401 26.1729C59.3588 30.7322 52.6004 38.1307 42.562 47.6491H42.5623Z" fill="white"/>
<path d="M42.5619 48.0486C42.4419 48.0486 42.3619 48.0086 42.2819 47.9286L37.6825 43.3292C37.6025 43.2492 37.6025 43.1692 37.6025 43.0492C37.6025 42.9292 37.6425 42.8492 37.7225 42.7695L54.5997 25.8923C54.6358 25.8545 54.6793 25.8243 54.7274 25.8037C54.7755 25.7831 54.8272 25.7725 54.8796 25.7725C54.9319 25.7725 54.9837 25.7831 55.0318 25.8037C55.0799 25.8243 55.1233 25.8545 55.1594 25.8923C55.67 26.3649 56.0735 26.9413 56.3425 27.5829C56.6115 28.2245 56.74 28.9163 56.7191 29.6117C56.6391 34.0511 51.6004 39.6898 42.8816 47.9286C42.7619 48.0086 42.6419 48.0486 42.5619 48.0486ZM38.5225 43.0492C41.0819 45.6489 42.1619 46.6886 42.5619 47.0886C49.2807 40.6898 55.7994 34.1311 55.8394 29.6117C55.8794 28.572 55.4794 27.532 54.7997 26.7323L38.5225 43.0492Z" fill="#FF6C37"/>
<path d="M33.0432 38.1706L36.4426 41.5699C36.5226 41.6499 36.5226 41.7299 36.4426 41.8099C36.4026 41.8499 36.4026 41.8499 36.3626 41.8499L29.3238 43.3696C28.9638 43.4096 28.6441 43.1696 28.5641 42.8099C28.5241 42.6099 28.6041 42.4099 28.7241 42.2899L32.8032 38.2106C32.8832 38.1306 33.0032 38.0906 33.0432 38.1706Z" fill="white"/>
<path d="M29.2037 43.7693C28.6037 43.7693 28.1641 43.2893 28.1641 42.6896C28.1641 42.4096 28.2841 42.1296 28.4841 41.9296L32.5631 37.8502C32.8031 37.6502 33.1231 37.6502 33.3631 37.8502L36.7625 41.2496C37.0025 41.4496 37.0025 41.8096 36.7625 42.0496C36.6825 42.1296 36.6025 42.1696 36.4825 42.2096L29.4438 43.7293C29.3637 43.7293 29.2837 43.7693 29.2037 43.7693ZM32.9231 38.6099L29.0037 42.5296C28.9237 42.6096 28.8841 42.7296 28.9637 42.8496C29.0037 42.9693 29.1237 43.0093 29.2437 42.9693L35.8425 41.5296L32.9231 38.6102V38.6099Z" fill="#FF6C37"/>
<path d="M63.5184 16.5748C60.9587 14.0951 56.8393 14.1751 54.3599 16.7748C51.8802 19.3741 51.9602 23.4535 54.5599 25.9329C55.586 26.9244 56.9114 27.5484 58.3293 27.7076C59.7472 27.8668 61.178 27.5522 62.3984 26.8129L57.839 22.2535L63.5184 16.5748Z" fill="white"/>
<path d="M59.0389 28.1325C55.2395 28.1325 52.1602 25.0531 52.1602 21.2537C52.1602 17.4544 55.2395 14.375 59.0389 14.375C60.7986 14.375 62.5183 15.055 63.7983 16.2947C63.878 16.3747 63.918 16.4547 63.918 16.5747C63.918 16.6947 63.878 16.7747 63.798 16.8544L58.3989 22.2534L62.6383 26.4928C62.7983 26.6528 62.7983 26.8928 62.6383 27.0528L62.5583 27.1328C61.5186 27.7725 60.2786 28.1325 59.0389 28.1325ZM59.0389 15.2147C55.6795 15.2147 52.9602 17.9344 53.0002 21.2937C53.0002 24.6531 55.7195 27.3725 59.0789 27.3325C59.9989 27.3325 60.9186 27.1325 61.7586 26.6928L57.5592 22.5334C57.4792 22.4534 57.4392 22.3734 57.4392 22.2534C57.4392 22.1334 57.4792 22.0534 57.5592 21.9737L62.9183 16.6144C61.8383 15.6947 60.4786 15.2147 59.0389 15.2147Z" fill="#FF6C37"/>
<path d="M63.6376 16.6943L63.5579 16.6143L57.8389 22.253L62.3579 26.7724C62.7979 26.4924 63.2379 26.1724 63.5976 25.8124C64.2035 25.2189 64.6856 24.5111 65.0159 23.7299C65.3463 22.9488 65.5183 22.1098 65.522 21.2617C65.5257 20.4135 65.3611 19.5731 65.0376 18.7891C64.7142 18.0051 64.2383 17.293 63.6376 16.6943Z" fill="white"/>
<path d="M62.3975 27.2128C62.2775 27.2128 62.1975 27.1728 62.1175 27.0928L57.5585 22.5334C57.4785 22.4534 57.4385 22.3734 57.4385 22.2534C57.4385 22.1334 57.4785 22.0534 57.5585 21.9738L63.2375 16.2947C63.2736 16.2568 63.3171 16.2266 63.3652 16.206C63.4133 16.1854 63.465 16.1748 63.5174 16.1748C63.5697 16.1748 63.6215 16.1854 63.6696 16.206C63.7177 16.2266 63.7611 16.2568 63.7972 16.2947L63.9172 16.3747C66.5969 19.0541 66.5969 23.3734 63.9572 26.0928C63.5572 26.4928 63.1175 26.8528 62.6375 27.1328C62.5175 27.1728 62.4375 27.2128 62.3975 27.2128ZM58.3982 22.2534L62.4375 26.2928C62.7575 26.0928 63.0775 25.8128 63.3175 25.5728C65.5969 23.2934 65.7169 19.5741 63.5175 17.1744L58.3982 22.2534Z" fill="#FF6C37"/>
<path d="M55.2792 26.6524C54.8176 26.1915 54.1919 25.9326 53.5395 25.9326C52.8872 25.9326 52.2615 26.1915 51.7998 26.6524L36.7227 41.7296L39.2423 44.2493L55.1992 30.2518C56.2392 29.3718 56.3192 27.8121 55.4392 26.7724C55.3592 26.7324 55.3192 26.6924 55.2792 26.6524Z" fill="white"/>
<path d="M39.202 44.6496C39.082 44.6496 39.002 44.6096 38.922 44.5299L36.4023 42.0102C36.3643 41.9741 36.3341 41.9307 36.3135 41.8826C36.2929 41.8344 36.2822 41.7826 36.2822 41.7302C36.2822 41.6779 36.2929 41.626 36.3135 41.5779C36.3341 41.5298 36.3643 41.4863 36.4023 41.4502L51.4795 26.373C51.7442 26.1069 52.0589 25.8957 52.4055 25.7515C52.7521 25.6074 53.1238 25.5332 53.4991 25.5332C53.8745 25.5332 54.2462 25.6074 54.5928 25.7515C54.9394 25.8957 55.2541 26.1069 55.5188 26.373C55.785 26.6377 55.9962 26.9525 56.1404 27.2991C56.2845 27.6457 56.3587 28.0173 56.3587 28.3927C56.3587 28.7681 56.2845 29.1398 56.1404 29.4864C55.9962 29.833 55.785 30.1477 55.5188 30.4124L55.3988 30.5324L39.4416 44.5299C39.4016 44.6096 39.3216 44.6496 39.202 44.6496ZM37.2823 41.7302L39.2416 43.6899L54.9188 29.9324C55.7988 29.2124 55.8788 27.8927 55.1588 27.013C54.4392 26.133 53.1195 26.053 52.2395 26.773C52.1995 26.813 52.1595 26.853 52.0795 26.893L37.2823 41.7305V41.7302Z" fill="#FF6C37"/>
<path d="M25.1648 58.8862C25.0048 58.9662 24.9248 59.1262 24.9648 59.2862L25.6445 62.1655C25.8045 62.5655 25.5645 63.0455 25.1248 63.1655C24.8048 63.2855 24.4448 63.1655 24.2448 62.9255L19.8457 58.5662L34.2029 44.209L39.1623 44.289L42.5216 47.6484C41.7216 48.328 36.8826 53.0074 25.1648 58.8862Z" fill="white"/>
<path d="M24.8454 63.5658C24.5254 63.5658 24.2054 63.4461 24.0054 63.2061L19.6461 58.8468C19.5664 58.7668 19.5264 58.6868 19.5264 58.5668C19.5264 58.4471 19.5664 58.3668 19.6464 58.2871L34.0039 43.9296C34.0839 43.8496 34.2039 43.8096 34.2836 43.8096L39.2429 43.8896C39.3626 43.8896 39.4429 43.9296 39.5226 44.0096L42.882 47.3689C42.962 47.4489 43.002 47.5689 43.002 47.6889C43.002 47.8089 42.962 47.8889 42.842 47.9689L42.5623 48.2086C38.3229 51.928 32.5639 55.6474 25.4054 59.2068L26.0851 62.0461C26.2051 62.5661 25.9651 63.1261 25.4851 63.4061C25.2454 63.5261 25.0454 63.5661 24.8454 63.5661V63.5658ZM20.4461 58.5668L24.5654 62.6461C24.6854 62.8461 24.9254 62.9261 25.1254 62.8061C25.3254 62.6861 25.4054 62.4461 25.2854 62.2461L24.6054 59.3668C24.5254 59.0068 24.6854 58.6868 25.0054 58.5268C32.0842 54.9674 37.8029 51.2883 42.0023 47.6486L39.0429 44.6893L34.4436 44.6093L20.4461 58.5668Z" fill="#FF6C37"/>
<path d="M16.4466 62.0061L19.886 58.5664L25.0048 63.6855L16.8463 63.1258C16.4866 63.0858 16.2463 62.7658 16.2866 62.4058C16.2866 62.2458 16.3266 62.0858 16.4466 62.0058V62.0061Z" fill="white"/>
<path d="M25.0049 64.0457L16.8062 63.4861C16.2062 63.4461 15.8065 62.9261 15.8465 62.3261C15.8865 62.0861 15.9665 61.8464 16.1665 61.6864L19.6059 58.247C19.642 58.2091 19.6854 58.1789 19.7336 58.1582C19.7817 58.1376 19.8335 58.127 19.8859 58.127C19.9382 58.127 19.9901 58.1376 20.0382 58.1582C20.0863 58.1789 20.1298 58.2091 20.1659 58.247L25.2846 63.3657C25.4049 63.4861 25.4446 63.6461 25.3649 63.8057C25.2849 63.9657 25.1649 64.0457 25.0049 64.0457ZM19.8859 59.127L16.7265 62.2864C16.6065 62.3661 16.6065 62.5661 16.7265 62.6461C16.7662 62.6861 16.8062 62.7261 16.8862 62.7261L23.9649 63.2061L19.8859 59.1267V59.127Z" fill="#FF6C37"/>
<path d="M32.8033 46.0486C32.5633 46.0486 32.4033 45.8486 32.4033 45.6486C32.4033 45.5286 32.4433 45.4486 32.5233 45.3686L36.4027 41.4892C36.4388 41.4513 36.4822 41.4211 36.5304 41.4004C36.5785 41.3798 36.6303 41.3691 36.6827 41.3691C36.7351 41.3691 36.7869 41.3798 36.835 41.4004C36.8832 41.4211 36.9266 41.4513 36.9627 41.4892L39.4821 44.0089C39.6021 44.1289 39.6421 44.2489 39.6021 44.4089C39.5621 44.5289 39.4421 44.6486 39.2824 44.6886L32.8833 46.0486H32.8033ZM36.6827 42.3292L34.0433 44.9686L38.3624 44.0489L36.6827 42.3292Z" fill="#FF6C37"/>
<path d="M39.1615 44.2893L34.7624 45.2489C34.4424 45.3289 34.1224 45.129 34.0428 44.809C34.0028 44.609 34.0428 44.409 34.2024 44.2493L36.6421 41.8096L39.1618 44.2893H39.1615Z" fill="white"/>
<path d="M34.6836 45.6486C34.552 45.6499 34.4213 45.6249 34.2994 45.5752C34.1775 45.5254 34.0667 45.4518 33.9736 45.3586C33.8804 45.2655 33.8068 45.1547 33.757 45.0328C33.7073 44.9109 33.6823 44.7803 33.6836 44.6486C33.6836 44.3689 33.804 44.1289 33.964 43.9289L36.4033 41.4892C36.4394 41.4513 36.4829 41.4211 36.531 41.4004C36.5791 41.3798 36.631 41.3691 36.6833 41.3691C36.7357 41.3691 36.7875 41.3798 36.8357 41.4004C36.8838 41.4211 36.9272 41.4513 36.9633 41.4892L39.4827 44.0089C39.6027 44.1289 39.6427 44.2489 39.6027 44.4089C39.5627 44.5289 39.4427 44.6486 39.283 44.6886L34.8836 45.6486H34.6836ZM36.6833 42.3292L34.524 44.4886C34.4436 44.5689 34.4436 44.6486 34.4836 44.7286C34.5236 44.8086 34.6036 44.8486 34.7236 44.8486L38.403 44.0486L36.6833 42.3292Z" fill="#FF6C37"/>
<path d="M63.6777 20.5339C63.5977 20.2942 63.318 20.1742 63.0777 20.2542C62.838 20.3339 62.718 20.6139 62.798 20.8542C62.798 20.8939 62.838 20.9339 62.838 20.9739C63.078 21.4539 62.998 22.0536 62.678 22.4936C62.518 22.6936 62.558 22.9735 62.718 23.1335C62.918 23.2935 63.198 23.2536 63.358 23.0536C63.958 22.2936 64.0777 21.3339 63.6777 20.5339Z" fill="#FF6C37"/>
</g>
<defs>
<clipPath id="clip0_135:351">
<rect width="80" height="80" fill="white" transform="translate(0.162109 0.25)"/>
</clipPath>
</defs>
</svg>
