<svg width="80" height="80" viewBox="0 0 80 80" fill="none" xmlns="http://www.w3.org/2000/svg">
<g clip-path="url(#clip0_135:373)">
<path d="M63.1991 15.2383H58.7051C57.8421 15.2383 57.1426 15.9378 57.1426 16.8008V17.4852C57.1426 18.3481 57.8421 19.0477 58.7051 19.0477H63.1991C64.0621 19.0477 64.7616 18.3481 64.7616 17.4852V16.8008C64.7616 15.9378 64.0621 15.2383 63.1991 15.2383Z" fill="#56B3B4"/>
<path d="M21.2947 76.1914H1.5625C0.699555 76.1914 0 76.891 0 77.7539V78.4383C0 79.3012 0.699555 80.0008 1.5625 80.0008H21.2947C22.1576 80.0008 22.8572 79.3012 22.8572 78.4383V77.7539C22.8572 76.891 22.1576 76.1914 21.2947 76.1914Z" fill="#EA5E5E"/>
<path d="M59.3895 45.7139H47.2764C46.4134 45.7139 45.7139 46.4134 45.7139 47.2764V47.9607C45.7139 48.8237 46.4134 49.5232 47.2764 49.5232H59.3895C60.2524 49.5232 60.952 48.8237 60.952 47.9607V47.2764C60.952 46.4134 60.2524 45.7139 59.3895 45.7139Z" fill="#BF85BF"/>
<path d="M40.3424 45.7139H24.4199C23.557 45.7139 22.8574 46.4134 22.8574 47.2764V47.9607C22.8574 48.8237 23.557 49.5232 24.4199 49.5232H40.3424C41.2054 49.5232 41.9049 48.8237 41.9049 47.9607V47.2764C41.9049 46.4134 41.2054 45.7139 40.3424 45.7139Z" fill="#EA5E5E"/>
<path d="M17.485 45.7139H1.5625C0.699555 45.7139 0 46.4134 0 47.2764V47.9607C0 48.8237 0.699555 49.5232 1.5625 49.5232H17.485C18.3479 49.5232 19.0475 48.8237 19.0475 47.9607V47.2764C19.0475 46.4134 18.3479 45.7139 17.485 45.7139Z" fill="#56B3B4"/>
<path d="M21.2947 60.9521H1.5625C0.699555 60.9521 0 61.6517 0 62.5146V63.199C0 64.062 0.699555 64.7615 1.5625 64.7615H21.2947C22.1576 64.7615 22.8572 64.062 22.8572 63.199V62.5146C22.8572 61.6517 22.1576 60.9521 21.2947 60.9521Z" fill="#BF85BF"/>
<path d="M21.2947 30.4756H1.5625C0.699555 30.4756 0 31.1751 0 32.0381V32.7225C0 33.5854 0.699555 34.285 1.5625 34.285H21.2947C22.1576 34.285 22.8572 33.5854 22.8572 32.7225V32.0381C22.8572 31.1751 22.1576 30.4756 21.2947 30.4756Z" fill="#BF85BF"/>
<path d="M59.39 7.61914H20.6104C19.7474 7.61914 19.0479 8.3187 19.0479 9.18164V9.86602C19.0479 10.729 19.7474 11.4285 20.6104 11.4285H59.39C60.253 11.4285 60.9525 10.729 60.9525 9.86602V9.18164C60.9525 8.3187 60.253 7.61914 59.39 7.61914Z" fill="#F7BA3E"/>
<path d="M13.6756 7.61914H1.5625C0.699555 7.61914 0 8.3187 0 9.18164V9.86602C0 10.729 0.699555 11.4285 1.5625 11.4285H13.6756C14.5386 11.4285 15.2381 10.729 15.2381 9.86602V9.18164C15.2381 8.3187 14.5386 7.61914 13.6756 7.61914Z" fill="#EA5E5E"/>
<path d="M21.2948 68.5713H16.8008C15.9378 68.5713 15.2383 69.2708 15.2383 70.1338V70.8182C15.2383 71.6811 15.9378 72.3807 16.8008 72.3807H21.2948C22.1578 72.3807 22.8573 71.6811 22.8573 70.8182V70.1338C22.8573 69.2708 22.1578 68.5713 21.2948 68.5713Z" fill="#F7BA3E"/>
<path d="M21.2948 22.8574H16.8008C15.9378 22.8574 15.2383 23.557 15.2383 24.4199V25.1043C15.2383 25.9672 15.9378 26.6668 16.8008 26.6668H21.2948C22.1578 26.6668 22.8573 25.9672 22.8573 25.1043V24.4199C22.8573 23.557 22.1578 22.8574 21.2948 22.8574Z" fill="#56B3B4"/>
<path d="M9.86594 68.5713H1.5625C0.699555 68.5713 0 69.2708 0 70.1338V70.8182C0 71.6811 0.699555 72.3807 1.5625 72.3807H9.86594C10.7289 72.3807 11.4284 71.6811 11.4284 70.8182V70.1338C11.4284 69.2708 10.7289 68.5713 9.86594 68.5713Z" fill="#56B3B4"/>
<path d="M9.86594 22.8574H1.5625C0.699555 22.8574 0 23.557 0 24.4199V25.1043C0 25.9672 0.699555 26.6668 1.5625 26.6668H9.86594C10.7289 26.6668 11.4284 25.9672 11.4284 25.1043V24.4199C11.4284 23.557 10.7289 22.8574 9.86594 22.8574Z" fill="#F7BA3E"/>
<path opacity="0.5" d="M55.581 68.5713H51.0869C50.224 68.5713 49.5244 69.2708 49.5244 70.1338V70.8182C49.5244 71.6811 50.224 72.3807 51.0869 72.3807H55.581C56.4439 72.3807 57.1435 71.6811 57.1435 70.8182V70.1338C57.1435 69.2708 56.4439 68.5713 55.581 68.5713Z" fill="#D0D4D8"/>
<path opacity="0.5" d="M44.152 68.5713H28.2295C27.3665 68.5713 26.667 69.2708 26.667 70.1338V70.8182C26.667 71.6811 27.3665 72.3807 28.2295 72.3807H44.152C45.0149 72.3807 45.7145 71.6811 45.7145 70.8182V70.1338C45.7145 69.2708 45.0149 68.5713 44.152 68.5713Z" fill="#D0D4D8"/>
<path opacity="0.5" d="M78.4371 68.5713H62.5146C61.6517 68.5713 60.9521 69.2708 60.9521 70.1338V70.8182C60.9521 71.6811 61.6517 72.3807 62.5146 72.3807H78.4371C79.3001 72.3807 79.9996 71.6811 79.9996 70.8182V70.1338C79.9996 69.2708 79.3001 68.5713 78.4371 68.5713Z" fill="#D0D4D8"/>
<path d="M63.1987 38.0947H32.0381C31.1751 38.0947 30.4756 38.7943 30.4756 39.6572V40.3416C30.4756 41.2045 31.1751 41.9041 32.0381 41.9041H63.1987C64.0617 41.9041 64.7612 41.2045 64.7612 40.3416V39.6572C64.7612 38.7943 64.0617 38.0947 63.1987 38.0947Z" fill="#56B3B4"/>
<path d="M25.1043 38.0947H12.9912C12.1283 38.0947 11.4287 38.7943 11.4287 39.6572V40.3416C11.4287 41.2045 12.1283 41.9041 12.9912 41.9041H25.1043C25.9673 41.9041 26.6668 41.2045 26.6668 40.3416V39.6572C26.6668 38.7943 25.9673 38.0947 25.1043 38.0947Z" fill="#F7BA3E"/>
<path d="M6.05656 38.0947H1.5625C0.699555 38.0947 0 38.7943 0 39.6572V40.3416C0 41.2045 0.699555 41.9041 1.5625 41.9041H6.05656C6.91951 41.9041 7.61906 41.2045 7.61906 40.3416V39.6572C7.61906 38.7943 6.91951 38.0947 6.05656 38.0947Z" fill="#EA5E5E"/>
<path d="M51.7711 15.2383H35.8486C34.9857 15.2383 34.2861 15.9378 34.2861 16.8008V17.4852C34.2861 18.3481 34.9857 19.0477 35.8486 19.0477H51.7711C52.6341 19.0477 53.3336 18.3481 53.3336 17.4852V16.8008C53.3336 15.9378 52.6341 15.2383 51.7711 15.2383Z" fill="#BF85BF"/>
<path d="M28.9137 15.2383H1.5625C0.699555 15.2383 0 15.9378 0 16.8008V17.4852C0 18.3481 0.699555 19.0477 1.5625 19.0477H28.9137C29.7767 19.0477 30.4762 18.3481 30.4762 17.4852V16.8008C30.4762 15.9378 29.7767 15.2383 28.9137 15.2383Z" fill="#56B3B4"/>
<path d="M47.9615 53.333H12.9912C12.1283 53.333 11.4287 54.0326 11.4287 54.8955V55.5799C11.4287 56.4428 12.1283 57.1424 12.9912 57.1424H47.9615C48.8245 57.1424 49.524 56.4428 49.524 55.5799V54.8955C49.524 54.0326 48.8245 53.333 47.9615 53.333Z" fill="#F7BA3E"/>
<path d="M6.05656 53.333H1.5625C0.699555 53.333 0 54.0326 0 54.8955V55.5799C0 56.4428 0.699555 57.1424 1.5625 57.1424H6.05656C6.91951 57.1424 7.61906 56.4428 7.61906 55.5799V54.8955C7.61906 54.0326 6.91951 53.333 6.05656 53.333Z" fill="#BF85BF"/>
<path d="M67.0086 22.8574H47.2764C46.4134 22.8574 45.7139 23.557 45.7139 24.4199V25.1043C45.7139 25.9672 46.4134 26.6668 47.2764 26.6668H67.0086C67.8715 26.6668 68.5711 25.9672 68.5711 25.1043V24.4199C68.5711 23.557 67.8715 22.8574 67.0086 22.8574Z" fill="#EA5E5E"/>
<path d="M67.0086 30.4756H47.2764C46.4134 30.4756 45.7139 31.1751 45.7139 32.0381V32.7225C45.7139 33.5854 46.4134 34.285 47.2764 34.285H67.0086C67.8715 34.285 68.5711 33.5854 68.5711 32.7225V32.0381C68.5711 31.1751 67.8715 30.4756 67.0086 30.4756Z" fill="#F7BA3E"/>
<path d="M47.9613 0H1.5625C0.699555 0 0 0.699555 0 1.5625V2.24688C0 3.10982 0.699555 3.80937 1.5625 3.80937H47.9613C48.8242 3.80937 49.5238 3.10982 49.5238 2.24688V1.5625C49.5238 0.699555 48.8242 0 47.9613 0Z" fill="#56B3B4"/>
<path opacity="0.5" d="M78.4371 0H54.8955C54.0326 0 53.333 0.699555 53.333 1.5625V2.24688C53.333 3.10982 54.0326 3.80937 54.8955 3.80937H78.4371C79.3 3.80937 79.9996 3.10982 79.9996 2.24688V1.5625C79.9996 0.699555 79.3 0 78.4371 0Z" fill="#D0D4D8"/>
<path opacity="0.5" d="M63.1989 53.333H54.8955C54.0326 53.333 53.333 54.0326 53.333 54.8955V55.5799C53.333 56.4428 54.0326 57.1424 54.8955 57.1424H63.1989C64.0619 57.1424 64.7614 56.4428 64.7614 55.5799V54.8955C64.7614 54.0326 64.0619 53.333 63.1989 53.333Z" fill="#D0D4D8"/>
<path opacity="0.5" d="M78.4372 53.333H70.1338C69.2708 53.333 68.5713 54.0326 68.5713 54.8955V55.5799C68.5713 56.4428 69.2708 57.1424 70.1338 57.1424H78.4372C79.3002 57.1424 79.9997 56.4428 79.9997 55.5799V54.8955C79.9997 54.0326 79.3002 53.333 78.4372 53.333Z" fill="#D0D4D8"/>
<path opacity="0.5" d="M78.4373 45.7139H66.3242C65.4613 45.7139 64.7617 46.4134 64.7617 47.2764V47.9607C64.7617 48.8237 65.4613 49.5232 66.3242 49.5232H78.4373C79.3003 49.5232 79.9998 48.8237 79.9998 47.9607V47.2764C79.9998 46.4134 79.3003 45.7139 78.4373 45.7139Z" fill="#D0D4D8"/>
<path opacity="0.5" d="M78.4373 7.61914H66.3242C65.4613 7.61914 64.7617 8.3187 64.7617 9.18164V9.86602C64.7617 10.729 65.4613 11.4285 66.3242 11.4285H78.4373C79.3003 11.4285 79.9998 10.729 79.9998 9.86602V9.18164C79.9998 8.3187 79.3003 7.61914 78.4373 7.61914Z" fill="#D0D4D8"/>
<path opacity="0.5" d="M78.4372 38.0947H70.1338C69.2708 38.0947 68.5713 38.7943 68.5713 39.6572V40.3416C68.5713 41.2045 69.2708 41.9041 70.1338 41.9041H78.4372C79.3002 41.9041 79.9997 41.2045 79.9997 40.3416V39.6572C79.9997 38.7943 79.3002 38.0947 78.4372 38.0947Z" fill="#D0D4D8"/>
<path opacity="0.5" d="M78.4372 15.2383H70.1338C69.2708 15.2383 68.5713 15.9378 68.5713 16.8008V17.4852C68.5713 18.3481 69.2708 19.0477 70.1338 19.0477H78.4372C79.3002 19.0477 79.9997 18.3481 79.9997 17.4852V16.8008C79.9997 15.9378 79.3002 15.2383 78.4372 15.2383Z" fill="#D0D4D8"/>
<path opacity="0.5" d="M78.4374 22.8574H73.9434C73.0804 22.8574 72.3809 23.557 72.3809 24.4199V25.1043C72.3809 25.9672 73.0804 26.6668 73.9434 26.6668H78.4374C79.3004 26.6668 79.9999 25.9672 79.9999 25.1043V24.4199C79.9999 23.557 79.3004 22.8574 78.4374 22.8574Z" fill="#D0D4D8"/>
<path opacity="0.5" d="M78.4374 30.4756H73.9434C73.0804 30.4756 72.3809 31.1751 72.3809 32.0381V32.7225C72.3809 33.5854 73.0804 34.285 73.9434 34.285H78.4374C79.3004 34.285 79.9999 33.5854 79.9999 32.7225V32.0381C79.9999 31.1751 79.3004 30.4756 78.4374 30.4756Z" fill="#D0D4D8"/>
<path opacity="0.5" d="M78.4381 60.9521H43.4678C42.6048 60.9521 41.9053 61.6517 41.9053 62.5146V63.199C41.9053 64.062 42.6048 64.7615 43.4678 64.7615H78.4381C79.301 64.7615 80.0006 64.062 80.0006 63.199V62.5146C80.0006 61.6517 79.301 60.9521 78.4381 60.9521Z" fill="#D0D4D8"/>
<path opacity="0.5" d="M36.5329 60.9521H28.2295C27.3665 60.9521 26.667 61.6517 26.667 62.5146V63.199C26.667 64.062 27.3665 64.7615 28.2295 64.7615H36.5329C37.3959 64.7615 38.0954 64.062 38.0954 63.199V62.5146C38.0954 61.6517 37.3959 60.9521 36.5329 60.9521Z" fill="#D0D4D8"/>
<path opacity="0.5" d="M78.4373 76.1914H58.7051C57.8421 76.1914 57.1426 76.891 57.1426 77.7539V78.4383C57.1426 79.3012 57.8421 80.0008 58.7051 80.0008H78.4373C79.3002 80.0008 79.9998 79.3012 79.9998 78.4383V77.7539C79.9998 76.891 79.3002 76.1914 78.4373 76.1914Z" fill="#D0D4D8"/>
<path opacity="0.5" d="M51.771 76.1914H28.2295C27.3665 76.1914 26.667 76.891 26.667 77.7539V78.4383C26.667 79.3012 27.3665 80.0008 28.2295 80.0008H51.771C52.634 80.0008 53.3335 79.3012 53.3335 78.4383V77.7539C53.3335 76.891 52.634 76.1914 51.771 76.1914Z" fill="#D0D4D8"/>
<path opacity="0.5" d="M40.3426 22.8574H28.2295C27.3665 22.8574 26.667 23.557 26.667 24.4199V25.1043C26.667 25.9672 27.3665 26.6668 28.2295 26.6668H40.3426C41.2056 26.6668 41.9051 25.9672 41.9051 25.1043V24.4199C41.9051 23.557 41.2056 22.8574 40.3426 22.8574Z" fill="#D0D4D8"/>
<path opacity="0.5" d="M40.3426 30.4756H28.2295C27.3665 30.4756 26.667 31.1751 26.667 32.0381V32.7225C26.667 33.5854 27.3665 34.285 28.2295 34.285H40.3426C41.2056 34.285 41.9051 33.5854 41.9051 32.7225V32.0381C41.9051 31.1751 41.2056 30.4756 40.3426 30.4756Z" fill="#D0D4D8"/>
</g>
<defs>
<clipPath id="clip0_135:373">
<rect width="80" height="80" fill="white"/>
</clipPath>
</defs>
</svg>
