<svg width="80" height="80" viewBox="0 0 80 80" fill="none" xmlns="http://www.w3.org/2000/svg">
<path d="M40 46.1846C43.4518 46.1846 46.25 43.3863 46.25 39.9346C46.25 36.4828 43.4518 33.6846 40 33.6846C36.5482 33.6846 33.75 36.4828 33.75 39.9346C33.75 43.3863 36.5482 46.1846 40 46.1846Z" fill="#00D8FF"/>
<path d="M40 54.2652C32.4878 54.4469 24.9945 53.4343 17.8 51.2652C14.4766 50.2116 11.3768 48.552 8.6575 46.3702C7.61983 45.6248 6.75568 44.6638 6.12436 43.553C5.49303 42.4423 5.10947 41.2081 5 39.9352C5 35.8027 9.54 31.7527 17.145 29.1027C24.5318 26.7546 32.2498 25.6165 40 25.7327C47.6468 25.6258 55.2614 26.7433 62.555 29.0427C65.7557 30.0631 68.7503 31.6425 71.4 33.7077C72.4199 34.4183 73.2711 35.3445 73.8932 36.4207C74.5154 37.4969 74.8932 38.6967 75 39.9352C75 44.2302 69.925 48.5827 61.75 51.2877C54.6948 53.3861 47.3596 54.3903 40 54.2652V54.2652ZM40 28.7227C32.5853 28.6236 25.2021 29.7054 18.1275 31.9277C11.1275 34.3702 7.99 37.7102 7.99 39.9277C7.99 42.2477 11.3625 45.8952 18.7675 48.4277C25.6502 50.4923 32.8165 51.4534 40 51.2752C47.041 51.4011 54.0598 50.4484 60.8125 48.4502C68.5 45.9027 72 42.2502 72 39.9352C71.8739 39.1407 71.5844 38.3811 71.1497 37.7042C70.7151 37.0274 70.1449 36.448 69.475 36.0027C67.1044 34.1705 64.4292 32.7708 61.5725 31.8677C54.5951 29.6771 47.3124 28.6154 40 28.7227V28.7227Z" fill="#00D8FF"/>
<path d="M25.799 71.1082C24.6328 71.1349 23.4803 70.852 22.459 70.2882C18.879 68.2232 17.639 62.2682 19.1415 54.3557C20.7981 46.7834 23.6685 39.5289 27.6415 32.8732C31.3684 26.1959 36.1395 20.1579 41.774 14.9882C44.2569 12.7249 47.1212 10.9195 50.234 9.65567C51.3599 9.12801 52.5881 8.85449 53.8315 8.85449C55.0749 8.85449 56.3031 9.12801 57.429 9.65567C61.1515 11.8007 62.384 18.3707 60.6465 26.8032C58.9388 33.9646 56.1429 40.8218 52.3565 47.1357C48.7609 53.7341 44.14 59.7195 38.6665 64.8682C36.0935 67.2201 33.1074 69.0755 29.859 70.3407C28.5586 70.8233 27.1859 71.0828 25.799 71.1082V71.1082ZM30.2315 34.3582C26.4418 40.7315 23.6907 47.6674 22.0815 54.9057C20.699 62.1932 22.0265 66.5757 23.9565 67.6907C25.9565 68.8482 30.8115 67.7507 36.7065 62.6007C41.9316 57.668 46.3421 51.9387 49.774 45.6257C53.4014 39.5895 56.0833 33.0335 57.7265 26.1857C59.3615 18.2482 57.949 13.3882 55.944 12.2332C55.1926 11.9452 54.3895 11.8163 53.5857 11.8546C52.7819 11.8929 51.9947 12.0976 51.274 12.4557C48.5032 13.599 45.9559 15.2222 43.749 17.2507C38.3657 22.2026 33.8082 27.983 30.249 34.3732L30.2315 34.3582Z" fill="#00D8FF"/>
<path d="M54.1921 71.1399C50.8046 71.1399 46.5021 69.0899 42.0221 65.2374C36.2889 60.0206 31.4371 53.9109 27.6546 47.1449C23.7315 40.5808 20.8838 33.4313 19.2196 25.9674C18.4979 22.6837 18.3642 19.2979 18.8246 15.9674C18.9311 14.732 19.3073 13.5349 19.9267 12.4606C20.5461 11.3863 21.3937 10.461 22.4096 9.74995C26.1271 7.59745 32.4346 9.80995 38.8721 15.5249C44.2236 20.5804 48.7681 26.4267 52.3471 32.8599C56.2679 39.2708 59.1454 46.2638 60.8721 53.5774C61.6249 56.9817 61.741 60.4959 61.2146 63.9424C61.0894 65.2135 60.6907 66.4424 60.0461 67.5449C59.4014 68.6474 58.5259 69.5975 57.4796 70.3299C56.475 70.8867 55.3404 71.1663 54.1921 71.1399V71.1399ZM30.2421 45.6399C33.8707 52.106 38.5053 57.9533 43.9721 62.9624C49.5946 67.7999 54.0546 68.8399 55.9721 67.7124C57.9721 66.5499 59.4471 61.8049 57.9271 54.1274C56.2618 47.1448 53.5018 40.4697 49.7496 34.3499C46.3342 28.1928 41.9965 22.5946 36.8871 17.7499C30.8271 12.3699 25.9121 11.1674 23.9096 12.3274C23.2855 12.8347 22.7733 13.4658 22.4054 14.1809C22.0375 14.8961 21.8219 15.6797 21.7721 16.4824C21.3746 19.4527 21.5041 22.4697 22.1546 25.3949C23.7554 32.5328 26.4865 39.369 30.2446 45.6449L30.2421 45.6399Z" fill="#00D8FF"/>
</svg>
