<svg width="85" height="81" viewBox="0 0 85 81" fill="none" xmlns="http://www.w3.org/2000/svg">
<g clip-path="url(#clip0_135:346)">
<path d="M59.0171 55.9002C62.1144 55.5795 64.4643 52.9093 64.3574 49.7048C64.2508 46.5005 61.5804 43.9369 58.3761 43.9369H58.1626C54.8512 44.0438 52.2879 46.8208 52.3948 50.132C52.5017 51.7343 53.1423 53.1228 54.1036 54.0841C50.4722 61.2408 44.9181 66.4746 36.5869 70.8539C30.9259 73.8447 25.0515 74.9129 19.1771 74.1654C14.3705 73.5244 10.6322 71.3884 8.28199 67.8631C4.86429 62.6293 4.54396 56.968 7.4279 51.307C9.4574 47.248 12.6613 44.2572 14.6908 42.7618C14.2636 41.3733 13.6227 39.0234 13.3023 37.3146C-2.18522 48.53 -0.582924 63.6975 4.11675 70.8539C7.64134 76.1949 14.7977 79.5061 22.7017 79.5061C24.8377 79.5061 26.9738 79.2923 29.1102 78.7585C42.782 76.088 53.1426 67.97 59.0171 55.9002ZM77.8158 42.6552C69.6981 33.1487 57.7354 27.9149 44.0636 27.9149H42.3548C41.3935 25.9923 39.364 24.7103 37.121 24.7103H36.9072C33.5964 24.8172 31.0331 27.5943 31.1397 30.9057C31.2466 34.11 33.9167 36.6736 37.121 36.6736H37.3345C39.6843 36.5667 41.7138 35.0713 42.5682 33.0418H44.4908C52.6086 33.0418 60.2987 35.3916 67.2417 39.9848C72.582 43.5097 76.4272 48.1028 78.5633 53.6569C80.379 58.1431 80.2722 62.5225 78.3495 66.2611C75.359 71.9221 70.339 75.0198 63.7167 75.0198C59.4443 75.0198 55.3856 73.7379 53.2492 72.7766C52.0745 73.8447 49.9381 75.5536 48.4426 76.6221C53.0358 78.7582 57.7354 79.9333 62.2213 79.9333C72.4751 79.9333 80.0587 74.272 82.9426 68.611C86.04 62.4156 85.8263 51.7343 77.8158 42.6552ZM23.5561 57.7156C23.663 60.9202 26.3331 63.4834 29.5374 63.4834H29.7512C33.0623 63.3769 35.6256 60.5995 35.5187 57.2884C35.4122 54.0838 32.7417 51.5205 29.5374 51.5205H29.324C29.1102 51.5205 28.7895 51.5205 28.5764 51.627C24.1971 44.3638 22.3813 36.4598 23.0223 27.9146C23.4492 21.5057 25.5856 15.9513 29.324 11.3582C32.4213 7.40607 38.4026 5.48344 42.4617 5.37689C53.7833 5.16311 58.5895 19.2625 58.9102 24.9238C60.2987 25.2441 62.6485 25.992 64.2508 26.5261C62.9689 9.22246 52.2879 0.25 42.0345 0.25C32.4213 0.25 23.5561 7.19295 20.0312 17.447C15.1181 31.1192 18.3223 44.2572 24.3036 54.6182C23.7699 55.3657 23.4492 56.5408 23.5561 57.7159V57.7156Z" fill="#764ABC"/>
</g>
<defs>
<clipPath id="clip0_135:346">
<rect width="83.9344" height="80" fill="white" transform="translate(0.859375 0.25)"/>
</clipPath>
</defs>
</svg>
