<svg width="80" height="80" viewBox="0 0 80 80" fill="none" xmlns="http://www.w3.org/2000/svg">
<path d="M40 0C62.0975 0 80 17.9025 80 40C80 62.0975 62.0975 80 40 80C17.9025 80 0 62.0975 0 40C0 17.9025 17.9025 0 40 0ZM32.0425 53.32C32.63 55.4825 32.565 57.4875 31.965 59.2975L31.755 59.8975C31.6775 60.105 31.575 60.3 31.495 60.485C31.0137 61.4723 30.3913 62.3843 29.6475 63.1925C27.315 65.72 24.075 66.6825 22.68 65.875C21.17 65.0025 21.9225 61.4225 24.62 58.5675C27.5225 55.5075 31.69 53.54 31.69 53.54V53.53L32.0425 53.32ZM65.09 17.1225C63.28 10.0125 51.4975 7.6825 40.35 11.64C33.71 13.9975 26.5375 17.6975 21.3675 22.5275C15.22 28.2675 14.245 33.2675 14.65 35.35C16.08 42.72 26.1725 47.5525 30.3275 51.12V51.1475C29.1 51.745 20.145 56.2375 18.0475 60.9C15.795 65.7925 18.4 69.2975 20.09 69.74C25.34 71.1975 30.7425 68.54 33.6475 64.2425C36.4475 60.04 36.1975 54.65 34.9875 51.9925C36.64 51.55 38.595 51.34 41.095 51.64C48.1025 52.4475 49.495 56.85 49.195 58.6475C48.895 60.445 47.4475 61.4975 46.9425 61.7975C46.45 62.0975 46.2925 62.1875 46.3425 62.3975C46.395 62.6975 46.6425 62.6975 47.045 62.645C47.5925 62.555 50.6925 61.1475 50.8475 57.7475C50.99 53.4375 46.8875 48.6475 39.5975 48.7375C36.59 48.805 34.6875 49.05 33.3475 49.5975C33.2502 49.4614 33.1311 49.3423 32.995 49.245C28.4925 44.4025 20.145 41.005 20.495 34.545C20.6025 32.2025 21.4475 26.005 36.4975 18.505C48.84 12.345 58.6975 14.0525 60.39 17.8025C62.84 23.1525 55.1425 33.1025 42.2925 34.545C37.395 35.0925 34.8425 33.205 34.1925 32.5025C33.49 31.745 33.4 31.695 33.135 31.8525C32.745 32.045 32.9925 32.7 33.135 33.1025C33.5375 34.1025 35.0875 35.85 37.7975 36.745C40.14 37.5025 45.8975 37.945 52.7975 35.2475C60.545 32.255 66.5875 23.9075 64.84 16.9L65.09 17.1225Z" fill="black"/>
</svg>
