<svg width="80" height="80" viewBox="0 0 80 80" fill="none" xmlns="http://www.w3.org/2000/svg">
<path d="M22.5 34.249C24.8333 24.9157 30.6667 20.249 40 20.249C54 20.249 55.75 30.749 62.75 32.499C67.4167 33.6657 71.5 31.9157 75 27.249C72.6667 36.5824 66.8333 41.249 57.5 41.249C43.5 41.249 41.75 30.749 34.75 28.999C30.0833 27.8324 26 29.5824 22.5 34.249ZM5 55.249C7.33333 45.9157 13.1667 41.249 22.5 41.249C36.5 41.249 38.25 51.749 45.25 53.499C49.9167 54.6657 54 52.9157 57.5 48.249C55.1667 57.5824 49.3333 62.249 40 62.249C26 62.249 24.25 51.749 17.25 49.999C12.5833 48.8324 8.5 50.5824 5 55.249Z" fill="#44A8B3"/>
</svg>
