<svg width="80" height="80" viewBox="0 0 80 80" fill="none" xmlns="http://www.w3.org/2000/svg">
<path d="M0 40V80H80V0H0V40Z" fill="#007ACC"/>
<path d="M17.6913 40.2661L17.666 43.542H28.0785V73.1295H35.4441V43.542H45.8566V40.3295C45.8566 38.5514 45.8185 37.0658 45.7679 37.0276C45.7298 36.977 39.3932 36.9514 31.7107 36.9642L17.7298 37.0023L17.6916 40.2658L17.6913 40.2661Z" fill="white"/>
<path d="M64.553 36.9093C66.5845 37.4174 68.1339 38.3187 69.5561 39.7918C70.2926 40.5793 71.3845 42.0143 71.4736 42.3571C71.4986 42.4587 68.0195 44.7952 65.9117 46.1031C65.8355 46.154 65.5305 45.8237 65.1876 45.3156C64.1592 43.8174 63.0798 43.1696 61.4289 43.0556C59.0039 42.8902 57.4417 44.1602 57.4545 46.2806C57.4545 46.9031 57.5433 47.2712 57.7973 47.7793C58.3308 48.884 59.3211 49.5443 62.4323 50.8902C68.1592 53.354 70.6098 54.9793 72.1339 57.2902C73.8355 59.8684 74.2164 63.9824 73.0608 67.0427C71.7911 70.3696 68.642 72.6302 64.2098 73.3793C62.8386 73.6206 59.5879 73.5824 58.1148 73.3159C54.9023 72.7443 51.8545 71.1571 49.9751 69.0746C49.2386 68.2618 47.8036 66.1412 47.8926 65.9887C47.9308 65.9381 48.2608 65.7349 48.6289 65.519C48.9845 65.3159 50.3308 64.5409 51.6004 63.8046L53.8989 62.4712L54.3814 63.1824C55.0545 64.2109 56.5273 65.6206 57.4164 66.0902C59.9686 67.4365 63.4736 67.2459 65.2005 65.6965C65.937 65.0237 66.2417 64.3252 66.2417 63.2965C66.2417 62.3696 66.1273 61.9634 65.6448 61.2652C65.023 60.3762 63.753 59.6268 60.1464 58.0652C56.0195 56.2871 54.2417 55.1824 52.6164 53.4299C51.6767 52.4143 50.7876 50.7887 50.4195 49.4299C50.1148 48.2999 50.0383 45.4681 50.2798 44.3252C51.1308 40.3377 54.1401 37.5571 58.483 36.7315C59.8923 36.4649 63.1686 36.5665 64.553 36.9096V36.9093Z" fill="white"/>
</svg>
