<svg width="42" height="45" viewBox="0 0 42 45" fill="none" xmlns="http://www.w3.org/2000/svg">
<path d="M38.3333 0H42V3.61314H38.3333V0Z" fill="#2867B2"/>
<path d="M10.6667 6.89781H7V10.5109H10.6667V6.89781Z" fill="#2867B2"/>
<path d="M38.3333 6.89781H42V10.5109H38.3333V6.89781Z" fill="#2867B2"/>
<path d="M38.3333 13.7956H42V31.2044H38.3333V13.7956Z" fill="#2867B2"/>
<path fill-rule="evenodd" clip-rule="evenodd" d="M31.3333 34.4891H42V45H0V34.4891H3.33333V31.2044H0V20.6934H7.33333V24.3066H3.66667V27.5912H10.6667V20.6934H14.3333V31.2044H7V34.4891H10.6667V41.3869H24.3333V38.1022H14V34.4891H28V41.3869H31.3333V34.4891ZM35 38.1022H38.3333V41.3869H35V38.1022ZM7 38.1022H3.66667V41.3869H7V38.1022Z" fill="#2867B2"/>
<path d="M14.3333 13.7956H3.66667V3.61314H14.3333V0H0V17.4088H14.3333V13.7956Z" fill="#2867B2"/>
<path d="M17.6667 0H35.3333V17.4088H31.6667V3.61314H21.3333V6.89781H28.3333V10.5109H21.3333V13.7956H28.3333V17.4088H21.3333V27.5912H31.6667V24.3066H24.6667V20.6934H35.3333V31.2044H17.6667V0Z" fill="#2867B2"/>
</svg>
