<?xml version="1.0" encoding="UTF-8" standalone="no"?>
<!DOCTYPE svg PUBLIC "-//W3C//DTD SVG 1.1//EN" "http://www.w3.org/Graphics/SVG/1.1/DTD/svg11.dtd">
<svg xmlns="http://www.w3.org/2000/svg" xmlns:xlink="http://www.w3.org/1999/xlink" version="1.1" width="42pt" height="45pt" viewBox="0 0 42 45">
<g enable-background="new">
<path transform="matrix(1,0,0,-1,0,3.6132813)" d="M 38.333337 3.613281 L 42 3.613281 L 42 .000143 L 38.333337 .000143 L 38.333337 3.613281 Z " fill="#2867b2"/>
<path transform="matrix(1,0,0,-1,0,3.612793)" d="M 10.666667 -3.285017 L 7 -3.285017 L 7 -6.898156 L 10.666667 -6.898156 L 10.666667 -3.285017 Z " fill="#2867b2"/>
<path transform="matrix(1,0,0,-1,0,3.612793)" d="M 38.333337 -3.285017 L 42 -3.285017 L 42 -6.898156 L 38.333337 -6.898156 L 38.333337 -3.285017 Z " fill="#2867b2"/>
<path transform="matrix(1,0,0,-1,0,17.40918)" d="M 38.333337 3.613559 L 42 3.613559 L 42 -13.7952 L 38.333337 -13.7952 L 38.333337 3.613559 Z " fill="#2867b2"/>
<path transform="matrix(1,0,0,-1,0,24.30664)" d="M 31.333334 -10.182411 L 42 -10.182411 L 42 -20.69336 L 0 -20.69336 L 0 -10.182411 L 3.333333 -10.182411 L 3.333333 -6.897739 L 0 -6.897739 L 0 3.613209 L 7.333333 3.613209 L 7.333333 .000071 L 3.666667 .000071 L 3.666667 -3.284601 L 10.666667 -3.284601 L 10.666667 3.613209 L 14.333334 3.613209 L 14.333334 -6.897739 L 7 -6.897739 L 7 -10.182411 L 10.666667 -10.182411 L 10.666667 -17.080224 L 24.333334 -17.080224 L 24.333334 -13.795551 L 14 -13.795551 L 14 -10.182411 L 28 -10.182411 L 28 -17.080224 L 31.333334 -17.080224 L 31.333334 -10.182411 Z M 35 -13.795551 L 38.333337 -13.795551 L 38.333337 -17.080224 L 35 -17.080224 L 35 -13.795551 Z M 7 -13.795551 L 3.666667 -13.795551 L 3.666667 -17.080224 L 7 -17.080224 L 7 -13.795551 Z " fill="#2867b2" fill-rule="evenodd"/>
<path transform="matrix(1,0,0,-1,0,17.408692)" d="M 14.333334 3.61307 L 3.666667 3.61307 L 3.666667 13.795553 L 14.333334 13.795553 L 14.333334 17.408692 L 0 17.408692 L 0 -.000069 L 14.333334 -.000069 L 14.333334 3.61307 Z " fill="#2867b2"/>
<path transform="matrix(1,0,0,-1,0,31.20459)" d="M 17.666668 31.20459 L 35.333337 31.20459 L 35.333337 13.79583 L 31.666668 13.79583 L 31.666668 27.591452 L 21.333334 27.591452 L 21.333334 24.30678 L 28.333334 24.30678 L 28.333334 20.693642 L 21.333334 20.693642 L 21.333334 17.40897 L 28.333334 17.40897 L 28.333334 13.79583 L 21.333334 13.79583 L 21.333334 3.613348 L 31.666668 3.613348 L 31.666668 6.89802 L 24.666668 6.89802 L 24.666668 10.511158 L 35.333337 10.511158 L 35.333337 .00021 L 17.666668 .00021 L 17.666668 31.20459 Z " fill="#2867b2"/>
</g>
</svg>
