<svg width="73" height="72" viewBox="0 0 73 72" fill="none" xmlns="http://www.w3.org/2000/svg">
<g clip-path="url(#clip0_133:224)">
<path d="M68.5949 2.8125H4.40509C2.25177 2.8125 0.5 4.56427 0.5 6.71759V48.0432C0.5 50.1965 2.25177 51.9483 4.40509 51.9483H9.58459C10.1724 51.9483 10.6497 51.4715 10.6497 50.8837C10.6497 50.2954 10.1724 49.8186 9.58459 49.8186H4.40509C3.42621 49.8186 2.63025 49.0221 2.63025 48.0432V6.71759C2.63025 5.73871 3.42676 4.94275 4.40509 4.94275H68.5949C69.5738 4.94275 70.3698 5.73926 70.3698 6.71759V28.4117C70.2061 28.3799 70.0374 28.3618 69.8644 28.3618H67.9555V8.42212C67.9555 7.8338 67.4787 7.35699 66.8904 7.35699H57.1537C56.5654 7.35699 56.0886 7.8338 56.0886 8.42212C56.0886 9.01044 56.5654 9.48724 57.1537 9.48724H65.8253V28.3618H52.272C50.8185 28.3618 49.6358 29.5444 49.6358 30.9979V45.2741H7.17474V9.48724H52.1835C52.7719 9.48724 53.2487 9.01044 53.2487 8.42212C53.2487 7.8338 52.7719 7.35699 52.1835 7.35699H6.10962C5.5213 7.35699 5.04449 7.8338 5.04449 8.42212V46.3392C5.04449 46.9276 5.5213 47.4044 6.10962 47.4044H49.6364V49.8186H14.5856C13.9978 49.8186 13.521 50.2954 13.521 50.8837C13.521 51.472 13.9978 51.9489 14.5856 51.9489H26.7749L25.6175 61.3213H23.7191C22.3485 61.3213 21.2334 62.4364 21.2334 63.8069V66.6469C21.2334 68.0175 22.3485 69.132 23.7191 69.132H49.2809C49.8314 69.132 50.3389 68.9502 50.7515 68.6459C51.1816 68.9507 51.7056 69.132 52.272 69.132H69.8644C71.3173 69.132 72.5 67.9499 72.5 66.4964V46.7122C72.5 46.1239 72.0232 45.6471 71.4349 45.6471C70.8466 45.6471 70.3698 46.1239 70.3698 46.7122V62.1326H51.7661V35.3611H70.3698V41.7266C70.3698 42.3149 70.8466 42.7917 71.4349 42.7917C72.0232 42.7917 72.5 42.3149 72.5 41.7266V6.71759C72.5 4.56427 70.7482 2.8125 68.5949 2.8125V2.8125ZM49.6358 61.3499C49.5199 61.3328 49.4018 61.3213 49.2809 61.3213H47.3825L46.2251 51.9483H49.6358V61.3499ZM28.9211 51.9483H44.0789L45.2363 61.3213H27.7637L28.9211 51.9483ZM49.6358 66.6469C49.6358 66.8425 49.4771 67.0018 49.2809 67.0018H23.7191C23.5229 67.0018 23.3636 66.8425 23.3636 66.6469V63.8064C23.3636 63.6108 23.5229 63.4515 23.7191 63.4515H46.4437H49.2809C49.4771 63.4515 49.6364 63.6108 49.6364 63.8064V66.6469H49.6358ZM70.3698 66.4964C70.3698 66.7749 70.1429 67.0018 69.8644 67.0018H52.272C51.9935 67.0018 51.7661 66.7749 51.7661 66.4964V64.2629H70.3698V66.4964ZM51.7661 33.2309V30.9974C51.7661 30.7189 51.9929 30.492 52.272 30.492H69.8644C70.1429 30.492 70.3698 30.7189 70.3698 30.9974V33.2309H51.7661Z" fill="#37322E"/>
<path d="M11.7897 30.7888H34.5117C35.1 30.7888 35.5768 30.312 35.5768 29.7237V12.6828C35.5768 12.0945 35.1 11.6177 34.5117 11.6177H11.7897C11.2014 11.6177 10.7246 12.0945 10.7246 12.6828V29.7237C10.7246 30.3126 11.2014 30.7888 11.7897 30.7888ZM12.8549 13.7479H33.4465V28.6591H12.8549V13.7479Z" fill="#37322E"/>
<path d="M46.9377 35.9724C46.9377 35.384 46.4609 34.9072 45.8726 34.9072H11.7897C11.2014 34.9072 10.7246 35.384 10.7246 35.9724C10.7246 36.5601 11.2014 37.0375 11.7897 37.0375H45.8726C46.4609 37.0375 46.9377 36.5601 46.9377 35.9724Z" fill="#37322E"/>
<path d="M11.7897 40.3037C11.2014 40.3037 10.7246 40.7805 10.7246 41.3688C10.7246 41.9566 11.2014 42.434 11.7897 42.434H30.2512C30.8395 42.434 31.3163 41.9566 31.3163 41.3688C31.3163 40.7805 30.8395 40.3037 30.2512 40.3037H11.7897Z" fill="#37322E"/>
<path d="M61.2095 13.6055H38.7716C38.1838 13.6055 37.707 14.0823 37.707 14.6706C37.707 15.2589 38.1838 15.7357 38.7716 15.7357H61.2095C61.7979 15.7357 62.2747 15.2589 62.2747 14.6706C62.2747 14.0823 61.7979 13.6055 61.2095 13.6055Z" fill="#37322E"/>
<path d="M61.9907 22.1974C61.9907 21.6091 61.5139 21.1323 60.9255 21.1323H38.7716C38.1838 21.1323 37.707 21.6091 37.707 22.1974C37.707 22.7852 38.1838 23.2626 38.7716 23.2626H60.9255C61.5139 23.2626 61.9907 22.7858 61.9907 22.1974Z" fill="#37322E"/>
<path d="M45.5886 30.7889C46.1764 30.7889 46.6532 30.3121 46.6532 29.7238C46.6532 29.136 46.1764 28.6592 45.5886 28.6592H38.7716C38.1838 28.6592 37.707 29.136 37.707 29.7238C37.707 30.3121 38.1838 30.7889 38.7716 30.7889H45.5886Z" fill="#37322E"/>
<path d="M68.3821 38.3869C68.3821 37.7986 67.9053 37.3218 67.317 37.3218H54.82C54.2317 37.3218 53.7549 37.7986 53.7549 38.3869V47.7593C53.7549 48.3477 54.2317 48.8245 54.82 48.8245H67.317C67.9053 48.8245 68.3821 48.3477 68.3821 47.7593V38.3869ZM66.2518 46.6942H55.8851V39.452H66.2518V46.6942Z" fill="#37322E"/>
<path d="M67.317 50.5283H54.82C54.2317 50.5283 53.7549 51.0051 53.7549 51.5934C53.7549 52.1818 54.2317 52.6586 54.82 52.6586H67.317C67.9053 52.6586 68.3821 52.1818 68.3821 51.5934C68.3821 51.0051 67.9053 50.5283 67.317 50.5283Z" fill="#37322E"/>
<path d="M68.3821 55.7121C68.3821 55.1238 67.9053 54.647 67.317 54.647H54.82C54.2317 54.647 53.7549 55.1238 53.7549 55.7121C53.7549 56.2999 54.2317 56.7767 54.82 56.7767H67.317C67.9053 56.7767 68.3821 56.2999 68.3821 55.7121Z" fill="#37322E"/>
<path d="M54.82 58.7651C54.2317 58.7651 53.7549 59.2419 53.7549 59.8303C53.7549 60.4186 54.2317 60.8954 54.82 60.8954H61.4942C62.0825 60.8954 62.5593 60.4186 62.5593 59.8303C62.5593 59.2419 62.0825 58.7651 61.4942 58.7651H54.82Z" fill="#37322E"/>
</g>
<defs>
<clipPath id="clip0_133:224">
<rect width="72" height="72" fill="white" transform="translate(0.5)"/>
</clipPath>
</defs>
</svg>
