<svg width="73" height="72" viewBox="0 0 73 72" fill="none" xmlns="http://www.w3.org/2000/svg">
<g clip-path="url(#clip0_133:169)">
<path d="M72.0942 1.46131C72.0176 0.842049 71.5299 0.354333 70.9108 0.277764C65.3318 -0.41226 59.5749 0.189221 54.2604 2.01652C48.9455 3.84401 44.0353 6.91056 40.0612 10.8847L30.9921 19.9537L17.9013 21.642C17.6028 21.6805 17.3257 21.8167 17.1129 22.0294L4.49126 34.651C4.134 35.0083 4.00409 35.5343 4.15414 36.0169C4.30383 36.4996 4.70899 36.8594 5.20578 36.9514L14.7491 38.719L16.6243 40.5942L12.632 42.7561C12.2543 42.9605 11.9952 43.3316 11.9333 43.7567C11.8714 44.1818 12.0138 44.6111 12.3176 44.9149L27.4567 60.054C27.7138 60.3111 28.0608 60.4526 28.4191 60.4526C28.4841 60.4526 28.5497 60.4479 28.6151 60.4385C29.0402 60.3766 29.4112 60.1175 29.6157 59.7398L31.7778 55.7475L33.653 57.6227L35.4206 67.166C35.5128 67.663 35.8724 68.0679 36.355 68.2178C36.4877 68.259 36.6236 68.279 36.7585 68.279C37.1142 68.279 37.4618 68.1394 37.7211 67.8803L50.3427 55.2587C50.5554 55.046 50.6917 54.7688 50.7301 54.4705L52.4186 41.3795L61.4876 32.3103C65.4618 28.3361 68.5283 23.4261 70.3558 18.1112C72.1829 12.7967 72.784 7.03902 72.0942 1.46131ZM14.9565 35.9899L8.24512 34.7468L18.7094 24.2822L27.8418 23.1044L14.9565 35.9899ZM28.0912 56.84L15.532 44.2809L18.6319 42.6022L29.7698 53.7402L28.0912 56.84ZM48.0898 53.6625L37.6253 64.127L36.3821 57.4158L49.2675 44.5304L48.0898 53.6625ZM59.5627 30.3863L34.9138 55.0352L17.3368 37.4581L41.9857 12.8091C45.567 9.22757 49.9695 6.4448 54.7387 4.7367C55.3547 7.91049 56.9066 10.8547 59.212 13.16C61.5172 15.4654 64.4613 17.0172 67.6353 17.6334C65.927 22.4023 63.144 26.8048 59.5627 30.3863ZM68.4545 15.0187C65.696 14.5482 63.13 13.2291 61.1364 11.2356C59.1427 9.24209 57.8238 6.67595 57.3533 3.91749C61.298 2.85442 65.4418 2.4919 69.5081 2.86386C69.8802 6.93015 69.5175 11.0739 68.4545 15.0187Z" fill="#37322E"/>
<path d="M40.6582 20.0385C37.4394 23.2575 37.4394 28.4948 40.6582 31.7138C42.2678 33.3233 44.3816 34.1279 46.4959 34.1279C48.6095 34.1279 50.7243 33.323 52.3335 31.7138H52.3336C55.5524 28.495 55.5524 23.2575 52.3335 20.0385C49.1145 16.8197 43.877 16.8199 40.6582 20.0385ZM50.4091 29.7892C48.251 31.9471 44.7401 31.9467 42.5828 29.7892C40.4249 27.6315 40.4249 24.1206 42.5828 21.9629C43.6614 20.884 45.0787 20.3448 46.4958 20.3448C47.913 20.3448 49.3301 20.8842 50.4087 21.9629C52.5666 24.1206 52.5666 27.6315 50.4091 29.7892Z" fill="#37322E"/>
<path d="M18.3482 54.2814C17.8166 53.75 16.9551 53.75 16.4236 54.2814L4.74819 65.9566C4.21675 66.4881 4.21675 67.3498 4.74819 67.881C5.014 68.1466 5.36237 68.2796 5.71056 68.2796C6.05875 68.2796 6.40712 68.1468 6.67293 67.881L18.3482 56.2058C18.8794 55.6745 18.8794 54.8128 18.3482 54.2814Z" fill="#37322E"/>
<path d="M20.1441 58.0011L14.8839 63.2613C14.3525 63.7927 14.3525 64.6544 14.8839 65.1857C15.1497 65.4513 15.4981 65.5843 15.8463 65.5843C16.1945 65.5843 16.5429 65.4515 16.8087 65.1857L22.0688 59.9255C22.6003 59.3941 22.6003 58.5324 22.0688 58.0011C21.5372 57.4697 20.6757 57.4697 20.1441 58.0011Z" fill="#37322E"/>
<path d="M13.0429 65.667C12.4735 65.667 11.9539 66.0342 11.7616 66.5693C11.566 67.1133 11.748 67.738 12.1999 68.0963C12.6621 68.4628 13.3368 68.4828 13.8198 68.1444C14.3351 67.7833 14.5442 67.0902 14.2987 66.5071C14.0967 66.0036 13.5829 65.667 13.0429 65.667Z" fill="#37322E"/>
<path d="M14.2983 66.5074C14.3328 66.5893 14.2656 66.4258 14.2983 66.5074V66.5074Z" fill="#37322E"/>
<path d="M9.19337 68.953L8.46905 69.6773C7.93743 70.2088 7.93743 71.0704 8.46887 71.6019C8.73469 71.8675 9.08287 72.0005 9.43124 72.0005C9.77943 72.0005 10.1278 71.8677 10.3934 71.6021L11.1177 70.8778C11.6494 70.3463 11.6494 69.4846 11.1179 68.9534C10.5865 68.4221 9.72463 68.4216 9.19337 68.953Z" fill="#37322E"/>
<path d="M8.21223 56.9752C7.6806 56.4438 6.81912 56.4438 6.28767 56.9752L1.02749 62.2354C0.496045 62.7669 0.496045 63.6285 1.02749 64.1598C1.2933 64.4254 1.64167 64.5584 1.98986 64.5584C2.33804 64.5584 2.68641 64.4256 2.95223 64.1598L8.21241 58.8996C8.74367 58.3684 8.74367 57.5067 8.21223 56.9752Z" fill="#37322E"/>
<path d="M10.3843 56.4529C10.9364 56.3141 11.3509 55.8329 11.4084 55.2668C11.4648 54.7125 11.16 54.1693 10.6652 53.9193C10.1399 53.6536 9.48164 53.7645 9.07412 54.1903C8.63775 54.6463 8.57479 55.3563 8.91953 55.8841C8.90865 55.8678 8.9003 55.8558 8.92225 55.8894C8.94512 55.9229 8.93731 55.9108 8.92643 55.8946C9.24704 56.3604 9.83219 56.5917 10.3843 56.4529Z" fill="#37322E"/>
<path d="M13.9032 53.2089L14.6273 52.4846C15.1588 51.9532 15.1588 51.0915 14.6271 50.5602C14.0952 50.0286 13.2335 50.0288 12.7028 50.5604L11.9786 51.2848C11.4472 51.8162 11.4472 52.6779 11.9788 53.2091C12.2446 53.4748 12.5928 53.6076 12.941 53.6076C13.2892 53.6076 13.6376 53.4748 13.9032 53.2089Z" fill="#37322E"/>
</g>
<defs>
<clipPath id="clip0_133:169">
<rect width="72" height="72" fill="white" transform="translate(0.5)"/>
</clipPath>
</defs>
</svg>
