<svg width="73" height="72" viewBox="0 0 73 72" fill="none" xmlns="http://www.w3.org/2000/svg">
<g clip-path="url(#clip0_131:249)">
<path d="M68.2109 7.875H4.78906C2.42426 7.875 0.5 9.79926 0.5 12.1641V59.8359C0.5 62.2007 2.42426 64.125 4.78906 64.125H68.2109C70.5757 64.125 72.5 62.2007 72.5 59.8359V12.1641C72.5 9.79926 70.5757 7.875 68.2109 7.875ZM69.6875 59.8359C69.6875 60.65 69.025 61.3125 68.2109 61.3125H4.78906C3.97498 61.3125 3.3125 60.65 3.3125 59.8359V12.1641C3.3125 11.35 3.97498 10.6875 4.78906 10.6875H68.2109C69.025 10.6875 69.6875 11.35 69.6875 12.1641V59.8359Z" fill="#37322E"/>
<path d="M65.3796 21.8438H7.62012C6.84338 21.8438 6.21387 22.4733 6.21387 23.25V57C6.21387 57.7768 6.84338 58.4063 7.62012 58.4063H24.3594C25.1362 58.4063 25.7657 57.7768 25.7657 57C25.7657 56.2233 25.1362 55.5938 24.3594 55.5938H9.02637V24.6563H63.9734V55.5938H35.6561C34.8794 55.5938 34.2499 56.2233 34.2499 57C34.2499 57.7768 34.8794 58.4063 35.6561 58.4063H65.3796C66.1563 58.4063 66.7859 57.7768 66.7859 57V23.25C66.7859 22.4738 66.1563 21.8438 65.3796 21.8438Z" fill="#37322E"/>
<path d="M27.3594 17.625H63.6406C64.4174 17.625 65.0469 16.9955 65.0469 16.2187C65.0469 15.442 64.4174 14.8125 63.6406 14.8125H27.3594C26.5826 14.8125 25.9531 15.442 25.9531 16.2187C25.9531 16.9955 26.5826 17.625 27.3594 17.625Z" fill="#37322E"/>
<path d="M8.9834 17.6245C9.07513 17.6245 9.16797 17.6163 9.25915 17.5981C9.34924 17.58 9.43658 17.5531 9.52228 17.5179C9.60687 17.4828 9.68817 17.4394 9.76398 17.3883C9.84143 17.3367 9.91339 17.2773 9.97766 17.2125C10.2408 16.9511 10.3896 16.5896 10.3896 16.2183C10.3896 16.1271 10.3814 16.0342 10.3633 15.9442C10.3452 15.8541 10.3182 15.7656 10.2831 15.6816C10.2479 15.597 10.2045 15.514 10.1534 15.4382C10.1018 15.3619 10.0441 15.2888 9.97766 15.2246C9.91339 15.1597 9.84143 15.1004 9.76398 15.0499C9.68817 14.9993 9.60687 14.9559 9.52228 14.9208C9.43658 14.8856 9.34924 14.8587 9.25915 14.8406C9.07788 14.8038 8.89111 14.8038 8.70929 14.8406C8.6192 14.8587 8.53076 14.8856 8.44672 14.9208C8.36212 14.9559 8.27917 14.9993 8.20337 15.0499C8.12592 15.1004 8.05395 15.1597 7.98968 15.2246C7.92487 15.2888 7.86554 15.3619 7.815 15.4382C7.76447 15.514 7.72107 15.597 7.68591 15.6816C7.65076 15.7656 7.62384 15.8541 7.60571 15.9442C7.58704 16.0342 7.57715 16.1271 7.57715 16.2183C7.57715 16.5896 7.72766 16.9511 7.98968 17.2125C8.25116 17.4756 8.61371 17.6245 8.9834 17.6245Z" fill="#37322E"/>
<path d="M13.3109 16.7571C13.3461 16.8417 13.3895 16.923 13.44 16.9988C13.4905 17.0762 13.5499 17.1482 13.6147 17.2125C13.8762 17.4756 14.2387 17.6245 14.6084 17.6245C14.7012 17.6245 14.793 17.6162 14.8842 17.5981C14.9742 17.58 15.0616 17.5531 15.1473 17.5179C15.2319 17.4827 15.3132 17.4393 15.389 17.3883C15.4664 17.3366 15.5384 17.2789 15.6027 17.2125C15.6691 17.1482 15.7268 17.0762 15.7784 16.9988C15.8295 16.923 15.8729 16.8417 15.9081 16.7571C15.9432 16.6714 15.9702 16.5841 15.9883 16.494C16.0064 16.4028 16.0146 16.311 16.0146 16.2182C16.0146 16.127 16.0064 16.0358 15.9883 15.9441C15.9702 15.854 15.9432 15.7656 15.9081 15.6815C15.8729 15.5969 15.8295 15.5151 15.7784 15.4382C15.7268 15.3618 15.6691 15.2888 15.6027 15.2245C15.5384 15.1597 15.4664 15.1004 15.389 15.0498C15.3132 14.9993 15.2319 14.9559 15.1473 14.9207C15.0616 14.8856 14.9742 14.8587 14.8842 14.8405C14.4271 14.7477 13.9404 14.8982 13.6147 15.2245C13.5499 15.2888 13.4905 15.3618 13.44 15.4382C13.3895 15.5151 13.3461 15.5969 13.3109 15.6815C13.2758 15.7656 13.2488 15.854 13.2307 15.9441C13.212 16.0358 13.2021 16.127 13.2021 16.2182C13.2021 16.311 13.212 16.4028 13.2307 16.494C13.2488 16.5841 13.2758 16.6714 13.3109 16.7571Z" fill="#37322E"/>
<path d="M18.9359 16.7571C18.9711 16.8417 19.0145 16.923 19.065 16.9988C19.1155 17.0763 19.1749 17.1483 19.2397 17.2125C19.304 17.279 19.3759 17.3367 19.4534 17.3883C19.5292 17.4394 19.6121 17.4828 19.6967 17.5179C19.7808 17.5531 19.8692 17.58 19.9593 17.5981C20.0494 17.6163 20.1422 17.6245 20.2334 17.6245C20.3262 17.6245 20.418 17.6163 20.5092 17.5981C20.5992 17.58 20.6866 17.5531 20.7723 17.5179C20.8569 17.4828 20.9382 17.4394 21.014 17.3883C21.0914 17.3367 21.1634 17.279 21.2277 17.2125C21.2925 17.1483 21.3518 17.0763 21.4034 16.9988C21.4545 16.923 21.4979 16.8417 21.5331 16.7571C21.5682 16.6715 21.5952 16.5841 21.6133 16.494C21.6314 16.4028 21.6396 16.3111 21.6396 16.2183C21.6396 16.1271 21.6314 16.0342 21.6133 15.9442C21.5952 15.8541 21.5682 15.7656 21.5331 15.6816C21.4979 15.597 21.4545 15.514 21.4034 15.4382C21.3518 15.3608 21.2925 15.2888 21.2277 15.2246C21.1634 15.1597 21.0914 15.1004 21.014 15.0499C20.9382 14.9993 20.8569 14.9559 20.7723 14.9208C20.6866 14.8856 20.5992 14.8587 20.5092 14.8406C20.3279 14.8038 20.1411 14.8038 19.9593 14.8406C19.8692 14.8587 19.7808 14.8856 19.6967 14.9208C19.6121 14.9559 19.5292 14.9993 19.4534 15.0499C19.3759 15.1004 19.304 15.1597 19.2397 15.2246C19.1749 15.2888 19.1155 15.3608 19.065 15.4382C19.0145 15.514 18.9711 15.597 18.9359 15.6816C18.9008 15.7656 18.8738 15.8541 18.8557 15.9442C18.837 16.0342 18.8271 16.1271 18.8271 16.2183C18.8271 16.3111 18.837 16.4028 18.8557 16.494C18.8738 16.5841 18.9008 16.6715 18.9359 16.7571Z" fill="#37322E"/>
<path d="M25.3339 32.2724C24.8286 31.6825 23.9409 31.6138 23.3509 32.1186L15.0073 39.263C14.692 39.5328 14.5124 39.9277 14.5157 40.3425C14.519 40.7577 14.7052 41.1494 15.0249 41.4142L23.4624 48.4031C23.7244 48.6201 24.0425 48.7261 24.3584 48.7261C24.7626 48.7261 25.1642 48.5525 25.4422 48.2169C25.9376 47.6187 25.8547 46.7321 25.2565 46.2372L18.1049 40.3133L25.1807 34.2555C25.7701 33.7501 25.8388 32.8624 25.3339 32.2724Z" fill="#37322E"/>
<path d="M45.883 48.1619C46.161 48.4887 46.5565 48.6563 46.9542 48.6563C47.2766 48.6563 47.6007 48.5458 47.8655 48.3206L56.2091 41.2119C56.5255 40.9422 56.7068 40.5461 56.703 40.1303C56.6997 39.7139 56.5124 39.3212 56.1915 39.0564L47.754 32.1026C47.1547 31.6082 46.2681 31.6939 45.7743 32.2932C45.2804 32.8925 45.3656 33.7786 45.9649 34.273L53.1077 40.1594L46.0412 46.1799C45.4502 46.6831 45.3793 47.5708 45.883 48.1619Z" fill="#37322E"/>
<path d="M40.5443 31.9301C39.8758 31.5346 39.0134 31.7559 38.6179 32.4245L30.2743 46.5342C29.8788 47.2027 30.1002 48.0651 30.7687 48.4606C30.9934 48.5936 31.24 48.6567 31.4834 48.6567C31.964 48.6567 32.4326 48.4095 32.6951 47.9657L41.0387 33.8565C41.4342 33.188 41.2129 32.3256 40.5443 31.9301Z" fill="#37322E"/>
<path d="M31.3293 56.5565C31.2941 56.4708 31.2507 56.389 31.1996 56.3132C31.1491 56.2357 31.0903 56.1643 31.0255 56.0995C30.9607 56.0347 30.8893 55.9759 30.8118 55.9254C30.736 55.8743 30.6542 55.8309 30.5685 55.7957C30.4839 55.7606 30.3954 55.7326 30.3054 55.7155C29.85 55.6227 29.3633 55.7732 29.037 56.0995C28.9722 56.1643 28.9134 56.2357 28.8629 56.3132C28.8118 56.389 28.7684 56.4708 28.7332 56.5565C28.6981 56.6411 28.67 56.7296 28.653 56.8197C28.6349 56.9097 28.625 57.0026 28.625 57.0938C28.625 57.4635 28.7755 57.8266 29.037 58.088C29.2985 58.3495 29.6616 58.5 30.0312 58.5C30.1224 58.5 30.2153 58.4918 30.3054 58.4731C30.3954 58.455 30.4839 58.427 30.5685 58.3918C30.6542 58.3567 30.736 58.3133 30.8118 58.2622C30.8893 58.2116 30.9607 58.1529 31.0255 58.088C31.0903 58.0232 31.1491 57.9518 31.1996 57.8744C31.2507 57.7985 31.2941 57.7167 31.3293 57.631C31.3644 57.5464 31.3925 57.458 31.4095 57.3679C31.4276 57.2778 31.4375 57.185 31.4375 57.0938C31.4375 57.0026 31.4276 56.9097 31.4095 56.8197C31.3925 56.7296 31.3644 56.6411 31.3293 56.5565Z" fill="#37322E"/>
</g>
<defs>
<clipPath id="clip0_131:249">
<rect width="72" height="72" fill="white" transform="translate(0.5)"/>
</clipPath>
</defs>
</svg>
